<svg xmlns="http://www.w3.org/2000/svg" width="24" height="24" viewBox="0 0 24 24"><defs><style>.a{fill:rgba(0,0,0,0);}.b{fill:#043353;}</style></defs><g transform="translate(-168 -1216)"><rect class="a" width="24" height="24" transform="translate(168 1216)"/><path class="b" d="M188.99,1233.24v1.73a1.985,1.985,0,0,1-2.07,2,16.992,16.992,0,0,1-15.89-15.89,1.985,1.985,0,0,1,2-2.07h1.73a2,2,0,0,1,1.99,1.77l.29,2.52a1.992,1.992,0,0,1-.57,1.64l-1.85,1.85a15.047,15.047,0,0,0,6.59,6.59l1.84-1.84a1.991,1.991,0,0,1,1.64-.57l2.54.29A1.982,1.982,0,0,1,188.99,1233.24Z"/></g></svg>