<svg xmlns="http://www.w3.org/2000/svg" width="32" height="32" viewBox="0 0 32 32">
  <g id="_dashboard" data-name=" dashboard" transform="translate(-338 -242)">
    <rect id="Path" width="32" height="32" transform="translate(338 242)" fill="rgba(0,0,0,0)"/>
    <path id="Icon" d="M24.556,26H15.889a1.446,1.446,0,0,1-1.444-1.444V13a1.446,1.446,0,0,1,1.444-1.444h8.667A1.446,1.446,0,0,1,26,13V24.556A1.446,1.446,0,0,1,24.556,26ZM10.111,26H1.445A1.446,1.446,0,0,1,0,24.556V18.778a1.446,1.446,0,0,1,1.445-1.444h8.666a1.446,1.446,0,0,1,1.444,1.444v5.778A1.446,1.446,0,0,1,10.111,26Zm0-11.555H1.445A1.446,1.446,0,0,1,0,13V1.445A1.446,1.446,0,0,1,1.445,0h8.666a1.446,1.446,0,0,1,1.444,1.445V13A1.446,1.446,0,0,1,10.111,14.445ZM25,8.667H15.444a1,1,0,0,1-1-1V1a1,1,0,0,1,1-1H25a1,1,0,0,1,1,1V7.667A1,1,0,0,1,25,8.667Z" transform="translate(341 245)" fill="#043353"/>
  </g>
</svg>
