<svg xmlns="http://www.w3.org/2000/svg" width="30" height="22" viewBox="0 0 30 22"><defs><style>.a{fill:#043353;}</style></defs><g transform="translate(-1 -5)"><path class="a" d="M28.41,27H3.59A2.6,2.6,0,0,1,1,24.41V7.59A2.6,2.6,0,0,1,3.59,5H28.41A2.6,2.6,0,0,1,31,7.59V24.41A2.6,2.6,0,0,1,28.41,27ZM3.59,7A.59.59,0,0,0,3,7.59V24.41a.59.59,0,0,0,.59.59H28.41a.59.59,0,0,0,.59-.59V7.59A.59.59,0,0,0,28.41,7Z"/><path class="a" d="M16,16.66a2.47,2.47,0,0,1-1.44-.46L1.42,6.81,2.58,5.19l13.14,9.39a.48.48,0,0,0,.55,0l12.6-9L30,7.22l-12.6,9A2.47,2.47,0,0,1,16,16.66Z"/><path class="a" d="M3.23,6.88l12.5,8.78L28.89,6.82Z"/></g></svg>