<svg xmlns="http://www.w3.org/2000/svg" width="22" height="16.133" viewBox="0 0 22 16.133"><defs><style>.a{fill:#043353;}</style></defs><g transform="translate(-1 -5)"><g transform="translate(1 5)"><path class="a" d="M21.1,21.133H2.9a1.907,1.907,0,0,1-1.9-1.9V6.9A1.907,1.907,0,0,1,2.9,5H21.1A1.907,1.907,0,0,1,23,6.9V19.234a1.907,1.907,0,0,1-1.9,1.9ZM2.9,6.467a.433.433,0,0,0-.433.433V19.234a.433.433,0,0,0,.433.433H21.1a.433.433,0,0,0,.433-.433V6.9a.433.433,0,0,0-.433-.433Z" transform="translate(-1 -5)"/><path class="a" d="M12.112,13.6a1.811,1.811,0,0,1-1.056-.337L1.42,6.378,2.271,5.19l9.636,6.886a.352.352,0,0,0,.4,0l9.24-6.6.829,1.2-9.24,6.6A1.811,1.811,0,0,1,12.112,13.6Z" transform="translate(-1.112 -5.051)"/><path class="a" d="M3.23,6.864,12.4,13.3,22.047,6.82Z" transform="translate(-1.595 -5.485)"/></g></g></svg>