<svg xmlns="http://www.w3.org/2000/svg" width="24" height="24" viewBox="0 0 24 24"><defs><style>.a{fill:rgba(0,0,0,0);}.b{fill:#043353;}</style></defs><g transform="translate(-780 -3166)"><rect class="a" width="24" height="24" transform="translate(780 3166)"/><path class="b" d="M792,3187.469a1,1,0,0,1-.765-.36,44.2,44.2,0,0,1-3.8-5.312c-1.617-2.71-2.437-5-2.437-6.8a7,7,0,1,1,14,0c0,4.131-4.357,9.845-6.231,12.111A.993.993,0,0,1,792,3187.469Zm0-14.969a2.5,2.5,0,1,0,2.5,2.5A2.5,2.5,0,0,0,792,3172.5Z"/></g></svg>