<svg xmlns="http://www.w3.org/2000/svg" width="26" height="27" viewBox="0 0 26 27"><defs><style>.a{fill:#fff;}</style></defs><g transform="translate(-3 -2)"><g transform="translate(3 2)"><path class="a" d="M4,11.06V28.982H28V11.06Zm12,6.07a1.792,1.792,0,1,1-1.92,1.788A1.857,1.857,0,0,1,16,17.13Zm4.42,10.456a.967.967,0,0,1-1,.931,1.022,1.022,0,0,1-.8-.4v.456H13.38v-.456a1.022,1.022,0,0,1-.8.4.967.967,0,0,1-1-.931v-1.08a4.358,4.358,0,0,1,4-4.283,4.643,4.643,0,0,1,3.4,1.047A4,4,0,0,1,20.44,26.32Z" transform="translate(-3 -2.625)"/><path class="a" d="M26.28,29.138H5.72A2.631,2.631,0,0,1,3,26.606V6.532A2.631,2.631,0,0,1,5.72,4H26.28A2.631,2.631,0,0,1,29,6.532V26.606a2.631,2.631,0,0,1-2.72,2.532ZM5.72,5.862a.7.7,0,0,0-.72.67V26.606a.7.7,0,0,0,.72.67H26.28a.7.7,0,0,0,.72-.67V6.532a.7.7,0,0,0-.72-.67Z" transform="translate(-3 -2.138)"/><rect class="a" width="2" height="5.956" rx="1" transform="translate(20)"/><rect class="a" width="2" height="5.956" rx="1" transform="translate(12)"/><rect class="a" width="2" height="5.956" rx="1" transform="translate(4)"/></g></g></svg>