<svg xmlns="http://www.w3.org/2000/svg" width="26" height="26.01" viewBox="0 0 26 26.01"><defs><style>.a{fill:#fff;}</style></defs><g transform="translate(0 0)"><rect class="a" width="3.849" height="1.924" rx="0.962" transform="translate(4.802 14.828)"/><rect class="a" width="9.622" height="1.924" rx="0.962" transform="translate(4.802 19.062)"/><path class="a" d="M23.7,29.388H4.79a3.05,3.05,0,0,1-3.05-3.05V7.42A3.05,3.05,0,0,1,4.79,4.37H15.2a.962.962,0,0,1,.962.962h0a.962.962,0,0,1-.962.962H4.79A1.126,1.126,0,0,0,3.655,7.42V26.328a1.135,1.135,0,0,0,1.126,1.126H23.7a1.135,1.135,0,0,0,1.126-1.126V15.917a.962.962,0,0,1,.962-.962h0a.962.962,0,0,1,.962.962V26.328a3.05,3.05,0,0,1-3.05,3.06Z" transform="translate(-1.74 -3.378)"/><path class="a" d="M16.246,18.409H13.1V15.262a2.252,2.252,0,0,1,.664-1.6l9.67-9.69a2.136,2.136,0,0,1,3.041,0l1.068,1.068a2.136,2.136,0,0,1,0,3.021l-9.728,9.68A2.281,2.281,0,0,1,16.246,18.409Zm-1.222-1.924h1.222a.337.337,0,0,0,.241-.1l9.67-9.68a.212.212,0,0,0,0-.3L25.089,5.351a.212.212,0,0,0-.3,0l-9.67,9.68a.337.337,0,0,0-.1.241Z" transform="translate(-2.169 -3.339)"/><path class="a" d="M16.284,17.485H14.1V15.3a1.3,1.3,0,0,1,.385-.962l9.67-9.632a1.174,1.174,0,0,1,1.655,0l1.058,1.058a1.174,1.174,0,0,1,0,1.655L17.2,17.11A1.3,1.3,0,0,1,16.284,17.485Z" transform="translate(-2.207 -3.378)"/></g></svg>