<svg xmlns="http://www.w3.org/2000/svg" width="19.067" height="26" viewBox="0 0 19.067 26"><defs><style>.a{fill:#fff;}</style></defs><g transform="translate(-6 -1)"><g transform="translate(6 1)"><path class="a" d="M19.735,27H13.123a2.409,2.409,0,0,1-1.6-.615L3.806,19.451A2.418,2.418,0,0,1,3,17.692V3.331A2.331,2.331,0,0,1,5.331,1h14.4a2.331,2.331,0,0,1,2.331,2.331V24.669A2.331,2.331,0,0,1,19.735,27ZM5.331,2.733a.6.6,0,0,0-.6.6V17.692a.676.676,0,0,0,.225.5l7.713,6.933a.676.676,0,0,0,.451.173h6.613a.6.6,0,0,0,.6-.6V3.331a.6.6,0,0,0-.6-.6Z" transform="translate(-3 -1)"/><path class="a" d="M15,29.44H13V22.25a.19.19,0,0,0-.19-.19H4v-2h8.81A2.19,2.19,0,0,1,15,22.25Z" transform="translate(-3 -5)"/><path class="a" d="M12.255,2.45H4.55V18.691h7.7V26h8.271V2.45ZM8.875,5.485h1.69a.855.855,0,0,1,0,1.71H8.875a.855.855,0,0,1,0-1.71Zm6.758,5.394H8.875a.855.855,0,0,1,0-1.71h6.758a.855.855,0,0,1,0,1.71Z" transform="translate(-3 -1)"/></g></g></svg>