<svg xmlns="http://www.w3.org/2000/svg" width="20.308" height="18.967" viewBox="0 0 20.308 18.967"><defs><style>.a{fill:#043353;}</style></defs><g transform="translate(0 0)"><path class="a" d="M18.221,23.862H4.087A3.094,3.094,0,0,1,1,20.782V11H21.308v9.782a3.094,3.094,0,0,1-3.087,3.08ZM2.354,12.354v8.428a1.74,1.74,0,0,0,1.733,1.726H18.221a1.74,1.74,0,0,0,1.733-1.726V12.354Z" transform="translate(-1 -4.894)"/><path class="a" d="M21.308,10.092H1V7.1A3.094,3.094,0,0,1,4.087,4H18.221a3.094,3.094,0,0,1,3.087,3.1ZM2.354,8.738h17.6V7.1a1.74,1.74,0,0,0-1.733-1.746H4.087A1.74,1.74,0,0,0,2.354,7.1Z" transform="translate(-1 -2.633)"/><rect class="a" width="1.354" height="4.102" rx="0.677" transform="translate(4.021)"/><rect class="a" width="1.354" height="4.102" rx="0.677" transform="translate(14.933)"/><rect class="a" width="1.354" height="4.102" rx="0.677" transform="translate(9.477)"/><path class="a" d="M2.31,12V23H20.716V12Zm5.882,6.823a.677.677,0,1,1,.677-.677A.677.677,0,0,1,8.192,18.823Zm3.385,0a.677.677,0,1,1,.677-.677A.677.677,0,0,1,11.577,18.823Zm3.385,0a.677.677,0,1,1,.677-.677A.677.677,0,0,1,14.962,18.823Z" transform="translate(-1.423 -5.217)"/></g></svg>