<svg xmlns="http://www.w3.org/2000/svg" width="24" height="24" viewBox="0 0 24 24"><defs><style>.a{fill:rgba(0,0,0,0);opacity:0.871;}.b{fill:#18a4e0;}</style></defs><g transform="translate(-202 -3432)"><rect class="a" width="24" height="24" transform="translate(202 3432)"/><path class="b" d="M214,3454a10,10,0,1,1,10-10A10.011,10.011,0,0,1,214,3454Zm-5.084-11a1,1,0,1,0,0,1.994H213v4.087a1,1,0,0,0,1,1,1.021,1.021,0,0,0,1-1V3445h4.087a1,1,0,1,0,0-1.994H215v-4.087a1,1,0,0,0-1.994,0V3443Z"/></g></svg>