<svg xmlns="http://www.w3.org/2000/svg" width="17.068" height="23.595" viewBox="0 0 17.068 23.595"><defs><style>.a{fill:#fff;}</style></defs><g transform="translate(0 0)"><path class="a" d="M13.683,25.449a1.848,1.848,0,0,1-1.321-.543L5.409,17.954a.873.873,0,0,1,.621-1.494H7.391V6.919A1.919,1.919,0,0,1,9.31,5h8.746a1.919,1.919,0,0,1,1.919,1.919v9.54h1.361a.873.873,0,0,1,.621,1.494L15,24.906A1.848,1.848,0,0,1,13.683,25.449Zm-5.97-7.417,5.757,5.757a.244.244,0,0,0,.409,0l5.757-5.757H18.4V6.919a.346.346,0,0,0-.346-.346H9.31a.346.346,0,0,0-.346.346V18.032Zm13.127-1.2ZM6.526,16.8Z" transform="translate(-5.15 -1.854)"/><rect class="a" width="11.011" height="1.573" rx="0.786" transform="translate(3.028)"/><path class="a" d="M21.614,17.609l-6.929,6.953a1.077,1.077,0,0,1-1.526,0L6.183,17.609a.087.087,0,0,1,.063-.149H8.393V7.133A1.133,1.133,0,0,1,9.525,6h8.746A1.133,1.133,0,0,1,19.4,7.133V17.459h2.147a.087.087,0,0,1,.063.149Z" transform="translate(-5.364 -2.068)"/></g></svg>