<svg xmlns="http://www.w3.org/2000/svg" width="20" height="19.961" viewBox="0 0 20 19.961"><defs><style>.a{fill:#fff;}</style></defs><path class="a" d="M7.253,21.344h-.3l-4.082-.457-.457-4.082a2.677,2.677,0,0,1,.773-2.213L15.257,2.528a2.586,2.586,0,0,1,3.569,0l2.389,2.389a2.523,2.523,0,0,1,0,3.569L9.144,20.557A2.67,2.67,0,0,1,7.253,21.344Zm-.148-1.405a1.272,1.272,0,0,0,1.047-.365L20.224,7.5a1.117,1.117,0,0,0,0-1.581L17.835,3.525a1.145,1.145,0,0,0-1.581,0L4.176,15.59a1.279,1.279,0,0,0-.365,1.047l.33,2.965Z" transform="translate(-1.955 -1.813)"/><rect class="a" width="1.405" height="7.026" transform="translate(11.392 3.618) rotate(-45)"/><path class="a" d="M4.454,27.391l-1.49,1.49a.7.7,0,0,1-.991,0h0a.7.7,0,0,1,0-.991l1.49-1.49Z" transform="translate(-1.769 -9.124)"/><path class="a" d="M13.946,6.98,3.6,17.316l.218.225v.527h-.4v3.345H6.287v.141H7.84l.415.415.555-.555h.148v-.148l9.64-9.64Z" transform="translate(-2.26 -3.349)"/></svg>