<svg xmlns="http://www.w3.org/2000/svg" width="18" height="16.714" viewBox="0 0 18 16.714"><defs><style>.a{fill:#043353;}</style></defs><g transform="translate(-2 -3)"><g transform="translate(2 3)"><path class="a" d="M27.3,7.286H24.25V6H27.3a.643.643,0,0,1,0,1.286Z" transform="translate(-9.946 -4.071)"/><path class="a" d="M12.125,7.286H2.643A.643.643,0,0,1,2.643,6h9.482Z" transform="translate(-2 -4.071)"/><path class="a" d="M12.125,25.286H2.643a.643.643,0,1,1,0-1.286h9.482Z" transform="translate(-2 -10.5)"/><path class="a" d="M27.3,25.286H24.25V24H27.3a.643.643,0,1,1,0,1.286Z" transform="translate(-9.946 -10.5)"/><path class="a" d="M23.664,16.286h-9.6V15h9.6a.643.643,0,0,1,0,1.286Z" transform="translate(-6.307 -7.286)"/><path class="a" d="M5.574,16.286H2.643a.643.643,0,0,1,0-1.286H5.574Z" transform="translate(-2 -7.286)"/><path class="a" d="M19.421,8.143a2.571,2.571,0,1,1,2.571-2.571A2.571,2.571,0,0,1,19.421,8.143Zm0-3.857a1.286,1.286,0,1,0,1.286,1.286A1.286,1.286,0,0,0,19.421,4.286Z" transform="translate(-7.304 -3)"/><path class="a" d="M9.631,17.143A2.571,2.571,0,1,1,12.2,14.571,2.571,2.571,0,0,1,9.631,17.143Zm0-3.857a1.286,1.286,0,1,0,1.286,1.286A1.286,1.286,0,0,0,9.631,13.286Z" transform="translate(-3.807 -6.214)"/><path class="a" d="M19.821,26.143a2.571,2.571,0,1,1,2.571-2.571A2.571,2.571,0,0,1,19.821,26.143Zm0-3.857a1.286,1.286,0,1,0,1.286,1.286A1.286,1.286,0,0,0,19.821,22.286Z" transform="translate(-7.446 -9.429)"/><rect class="a" width="3.857" height="3.857" rx="1.929" transform="translate(14.046 0.643) rotate(90)"/><rect class="a" width="3.857" height="3.857" rx="1.929" transform="translate(7.753 6.429) rotate(90)"/><rect class="a" width="3.857" height="3.857" rx="1.929" transform="translate(14.304 12.214) rotate(90)"/></g></g></svg>