<svg xmlns="http://www.w3.org/2000/svg" width="30" height="29.791" viewBox="0 0 30 29.791"><defs><style>.a{fill:rgba(0,0,0,0);}.b{fill:#fff;}</style></defs><g transform="translate(-848 -2014)"><rect class="a" width="29.791" height="29.791" transform="translate(848 2014)"/><path class="b" d="M12.723,6.206a.938.938,0,0,1,.931.931V20.48a6.834,6.834,0,0,1-7.5,6.8A7.025,7.025,0,0,1,0,20.195V4.964A4.963,4.963,0,0,1,5.449.024,5.109,5.109,0,0,1,9.93,5.175V18A3.1,3.1,0,0,1,6.5,21.089a3.222,3.222,0,0,1-2.781-3.264V7.137a.931.931,0,1,1,1.862,0V18a1.241,1.241,0,0,0,2.483,0V4.964A3.1,3.1,0,0,0,4.643,1.873,3.222,3.222,0,0,0,1.862,5.138V20.48a4.957,4.957,0,0,0,5.449,4.94,5.109,5.109,0,0,0,4.481-5.151V7.137A.938.938,0,0,1,12.723,6.206Z" transform="translate(868.345 2014.414) rotate(45)"/></g></svg>