<svg xmlns="http://www.w3.org/2000/svg" width="28" height="28" viewBox="0 0 28 28"><defs><style>.a{fill:rgba(0,0,0,0);}.b{fill:#043353;}</style></defs><g transform="translate(-576 -3432)"><rect class="a" width="28" height="28" transform="translate(576 3432)"/><path class="b" d="M600,3446a1.264,1.264,0,0,1-1.257,1.263H584.706l6.133,6.167a1.263,1.263,0,0,1,0,1.782,1.248,1.248,0,0,1-1.772,0l-8.282-8.327a1.263,1.263,0,0,1,0-1.782l8.282-8.327a1.246,1.246,0,0,1,1.772,0,1.278,1.278,0,0,1,0,1.794l-6.133,6.167h14.037A1.264,1.264,0,0,1,600,3446Z" transform="translate(0)"/></g></svg>