<svg xmlns="http://www.w3.org/2000/svg" width="26" height="26" viewBox="0 0 26 26"><defs><style>.a{fill:#043353;}</style></defs><g transform="translate(-0.989 -0.999)"><g transform="translate(0.989 0.999)"><path class="a" d="M15.2,15.4a5.2,5.2,0,1,1,5.2-5.2,5.2,5.2,0,0,1-5.2,5.2Zm0-8.666A3.466,3.466,0,1,0,18.666,10.2,3.466,3.466,0,0,0,15.2,6.733Z" transform="translate(-2.19 -1.533)"/><path class="a" d="M14.385,29.368A13,13,0,0,1,4.341,24.61l-.451-.555.451-.546a13,13,0,0,1,20.088,0l.451.546-.451.555A13,13,0,0,1,14.385,29.368Zm-8.224-5.3a11.266,11.266,0,0,0,16.466,0,11.266,11.266,0,0,0-16.466,0Z" transform="translate(-1.376 -3.368)"/><path class="a" d="M14,27a13,13,0,1,1,10.044-4.758A13,13,0,0,1,14,27ZM14,2.733A11.266,11.266,0,1,0,25.264,14,11.266,11.266,0,0,0,14,2.733Z" transform="translate(-0.989 -0.999)"/><circle class="a" cx="4.333" cy="4.333" r="4.333" transform="translate(8.676 4.334)"/><path class="a" d="M8.984,21.1l-3.8,3.077s8.727,9.75,17.61.971l1.144-.971S16.515,16.484,8.984,21.1Zm3.9,4.376a.877.877,0,1,0-.009,0Zm3.354,0a.867.867,0,1,1,.867-.867A.867.867,0,0,1,16.238,25.479Z" transform="translate(-1.548 -3.483)"/></g></g></svg>