<svg xmlns="http://www.w3.org/2000/svg" width="73.125" height="73.124" viewBox="0 0 73.125 73.124"><defs><style>.a{fill:#fff;}</style></defs><g transform="translate(0)"><path class="a" d="M24.624,34.249A14.624,14.624,0,1,1,39.249,19.624,14.624,14.624,0,0,1,24.624,34.249Zm0-24.374a9.75,9.75,0,1,0,9.75,9.75A9.75,9.75,0,0,0,24.624,9.875Z" transform="translate(11.964 4.752)"/><path class="a" d="M33.407,48.59A36.561,36.561,0,0,1,5.157,35.209L3.89,33.649l1.267-1.536a36.561,36.561,0,0,1,56.5,0l1.267,1.536-1.267,1.56A36.561,36.561,0,0,1,33.407,48.59ZM10.276,33.674a31.686,31.686,0,0,0,46.31,0,31.686,31.686,0,0,0-46.31,0Z" transform="translate(3.182 24.534)"/><path class="a" d="M37.577,74.123A36.561,36.561,0,1,1,65.826,60.742,36.561,36.561,0,0,1,37.577,74.123Zm0-68.247A31.686,31.686,0,1,0,69.263,37.562,31.686,31.686,0,0,0,37.577,5.876Z" transform="translate(-0.989 -0.999)"/><circle class="a" cx="12.187" cy="12.187" r="12.187" transform="translate(24.402 12.189)"/><path class="a" d="M15.88,23.779,5.18,32.431s24.544,27.421,49.528,2.73l3.217-2.73S37.061,10.787,15.88,23.779ZM26.848,36.087a2.467,2.467,0,1,0-.024,0Zm9.433,0a2.437,2.437,0,1,1,2.437-2.437A2.437,2.437,0,0,1,36.281,36.087Z" transform="translate(5.036 25.776)"/></g></svg>