<svg xmlns="http://www.w3.org/2000/svg" width="80.369" height="62.828" viewBox="0 0 80.369 62.828"><defs><style>.a{fill:#8098a8;}</style></defs><path class="a" d="M32.358,17.9A15.558,15.558,0,1,0,47.917,33.458,15.585,15.585,0,0,0,32.358,17.9Z" transform="translate(-4.413 -17.9)"/><path class="a" d="M46.516,54.9H17.876A13.6,13.6,0,0,0,4.3,68.477V81.062H28.976l7.432-5.252,1.09,4.36a.364.364,0,0,1-.1.3l-.694.5H60.092V68.377A13.388,13.388,0,0,0,46.516,54.9ZM26.994,79.972l1.288-5.351,6.64-4.757.892,3.865Zm9.117-17.838L33.732,64.81l.694,3.072-5.45,3.865,1.685-7.036-2.279-2.577a.364.364,0,0,1-.1-.3l1.387-3.369a.213.213,0,0,1,.2-.2h4.459a.213.213,0,0,1,.2.2l1.486,3.369A.364.364,0,0,1,36.111,62.134Z" transform="translate(-4.3 -18.234)"/><path class="a" d="M96.284,46.084A12.815,12.815,0,0,0,83.5,33.3V46.084Z" transform="translate(-15.915 -22.994)"/><path class="a" d="M80.359,48.879V35.6h-.4C71.639,35.6,64.9,41.744,64.9,49.276A15.056,15.056,0,0,0,79.963,64.339c7.532,0,13.676-6.739,13.676-15.063v-.4Z" transform="translate(-15.747 -23.015)"/></svg>