<svg id="_notifications" data-name=" notifications" xmlns="http://www.w3.org/2000/svg" width="32" height="32" viewBox="0 0 32 32">
  <rect id="Path" width="32" height="32" fill="rgba(0,0,0,0)"/>
  <path id="Icon" d="M11.588,27.5a2.948,2.948,0,0,1-3.054-2.82h6.108A2.948,2.948,0,0,1,11.588,27.5Zm10.05-4.23H1.524a1.5,1.5,0,0,1-1.4-.867,1.32,1.32,0,0,1,.334-1.545l1.969-1.819v-7.05A9.458,9.458,0,0,1,4.217,6.262,8.484,8.484,0,0,1,9.3,3.074V2.116A2.211,2.211,0,0,1,11.588,0a2.211,2.211,0,0,1,2.291,2.116v.958a8.49,8.49,0,0,1,5.074,3.194,9.448,9.448,0,0,1,1.8,5.72v7.05l1.969,1.819a1.313,1.313,0,0,1,.33,1.538A1.512,1.512,0,0,1,21.638,23.27Z" transform="translate(4.413 2.5)" fill="#043353"/>
</svg>
