<svg xmlns="http://www.w3.org/2000/svg" width="560.163" height="474.197" viewBox="0 0 560.163 474.197">
  <g id="Group_181" data-name="Group 181" transform="translate(-25.201 -57.518)">
    <g id="Floor" transform="translate(25.201 209.932)">
      <path id="Floor-2" data-name="Floor" d="M503.328,453.988c-109.379,62.832-286.717,62.833-396.093,0s-109.38-164.7,0-227.536,286.715-62.832,396.094,0S612.708,391.158,503.328,453.988Z" transform="translate(-25.201 -179.331)" fill="#fafafa"/>
    </g>
    <g id="Shadows" transform="translate(59.939 224.475)">
      <path id="Shadow" d="M308.556,309.92c-22.984-13.27-60.245-13.27-83.228,0-19.481,11.247-22.442,28.418-8.895,41.47a9.721,9.721,0,0,0-2.19.891L141.637,394.2c-3.082,1.779-3.082,4.665,0,6.444l4.544,2.624a11.465,11.465,0,0,0,10.973-.307l67.622-44.255a6.7,6.7,0,0,0,.776-.612c23,13.141,60.094,13.1,83-.124C331.539,344.7,331.539,323.188,308.556,309.92Z" transform="translate(-31.27 -163.568)" fill="#e6e6e6"/>
      <path id="Shadow-2" data-name="Shadow" d="M456.373,289.042l-92.49,53.521a8.216,8.216,0,0,1-7.437,0l-160.9-92.9c-2.054-1.186-2.054-3.109,0-4.3l92.49-53.522a8.219,8.219,0,0,1,7.438,0l160.895,92.9C458.428,285.934,458.428,287.855,456.373,289.042Z" transform="translate(-17.533 -190.954)" fill="#e6e6e6"/>
      <path id="Shadow-3" data-name="Shadow" d="M79.95,374.576,55.208,360.291c-2.992-1.727-2.992-4.528,0-6.256l172.133-99.38a11.972,11.972,0,0,1,10.836,0l24.741,14.284c2.993,1.727,2.993,4.528,0,6.256L90.785,374.576A11.973,11.973,0,0,1,79.95,374.576Z" transform="translate(-52.965 -175.277)" fill="#e6e6e6"/>
      <ellipse id="Shadow-4" data-name="Shadow" cx="45.707" cy="24.977" rx="45.707" ry="24.977" transform="translate(393.382 177.758)" fill="#e6e6e6"/>
    </g>
    <g id="Plants" transform="translate(26.587 335.972)">
      <g id="Plants-2" data-name="Plants" transform="translate(491.027 33.668)">
        <g id="Group_3" data-name="Group 3">
          <g id="Group_1" data-name="Group 1" transform="translate(1.424)">
            <path id="Path_1" data-name="Path 1" d="M419.888,339.735c.445-5.538,5.373-16.686,11.7-23.415s15.783-11.26,22.025-8.548c5.813,2.526,4.534,10.316-3.136,14.93s-19.1,10.265-23.01,18.992l-7.579,10.484Z" transform="translate(-419.888 -306.973)" fill="#27debf"/>
            <path id="Path_2" data-name="Path 2" d="M419.888,339.735c.445-5.538,5.373-16.686,11.7-23.415s15.783-11.26,22.025-8.548c5.813,2.526,4.534,10.316-3.136,14.93s-19.1,10.265-23.01,18.992l-7.579,10.484Z" transform="translate(-419.888 -306.973)" opacity="0.1"/>
          </g>
          <g id="Group_2" data-name="Group 2" transform="translate(0 3.812)">
            <path id="Path_3" data-name="Path 3" d="M419.155,346.515a.408.408,0,0,0,.392-.3c5.228-18.607,21.757-32.743,31.184-35.4a.406.406,0,0,0,.28-.5.4.4,0,0,0-.5-.28c-9.606,2.709-26.437,17.075-31.745,35.964a.4.4,0,0,0,.28.5A.379.379,0,0,0,419.155,346.515Z" transform="translate(-418.75 -310.02)" fill="#fff"/>
          </g>
        </g>
        <g id="Group_6" data-name="Group 6" transform="translate(0.757 23.554)">
          <g id="Group_4" data-name="Group 4" transform="translate(0.667)">
            <path id="Path_4" data-name="Path 4" d="M420.716,354.879c1.14-3.04,5.355-7.873,11.846-11.621,7.181-4.148,15.964-5.614,18.243-9.108,2.738-4.2-.629-8.642-7.687-8.337s-20.112,8.851-23.23,23.049Z" transform="translate(-419.888 -325.798)" fill="#27debf"/>
          </g>
          <g id="Group_5" data-name="Group 5" transform="translate(0 3.952)">
            <path id="Path_5" data-name="Path 5" d="M419.76,350.711a.406.406,0,0,0,.37-.24c7.1-15.729,19.913-20.42,25.7-20.7a.406.406,0,0,0,.385-.425.4.4,0,0,0-.425-.385c-6.394.313-19.15,5.125-26.4,21.179a.408.408,0,0,0,.37.574Z" transform="translate(-419.355 -328.957)" fill="#fff"/>
          </g>
        </g>
      </g>
      <g id="Plants-3" data-name="Plants">
        <g id="Group_9" data-name="Group 9" transform="translate(0.562)">
          <g id="Group_7" data-name="Group 7">
            <path id="Path_6" data-name="Path 6" d="M63.831,315.607s-1.308-11.5-7.029-20.429S43.22,280.681,35.884,280.1s-13.259,6.169-5.41,10.8,21.791,9.364,28.209,26.7Z" transform="translate(-26.758 -280.065)" fill="#27debf"/>
            <path id="Path_7" data-name="Path 7" d="M63.831,315.607s-1.308-11.5-7.029-20.429S43.22,280.681,35.884,280.1s-13.259,6.169-5.41,10.8,21.791,9.364,28.209,26.7Z" transform="translate(-26.758 -280.065)" opacity="0.1"/>
          </g>
          <g id="Group_8" data-name="Group 8" transform="translate(5.549 3.442)">
            <path id="Path_8" data-name="Path 8" d="M60.567,311.928a.343.343,0,0,0,.078-.023.39.39,0,0,0,.215-.51c-7.74-19.062-22.476-27.022-29.187-28.568a.392.392,0,1,0-.175.763c6.573,1.514,21.018,9.335,28.637,28.1A.391.391,0,0,0,60.567,311.928Z" transform="translate(-31.193 -282.816)" fill="#fff"/>
          </g>
        </g>
        <g id="Group_14" data-name="Group 14" transform="translate(0 21.987)">
          <g id="Group_11" data-name="Group 11">
            <g id="Group_10" data-name="Group 10">
              <path id="Path_9" data-name="Path 9" d="M26.617,308.131c.706,1.592,2.442,2.42,4.06,3.072s3.371,1.35,4.244,2.855c1.76,3.039-1.129,7.315.761,10.274a5.442,5.442,0,0,0,3.717,2.156,36.267,36.267,0,0,0,3.652.327,14.662,14.662,0,0,0,1.737-.135,7.894,7.894,0,0,1,5.03.536c2.416,1.358,3.158,4.409,4.626,6.762a11.469,11.469,0,0,0,8.138,5.1c1.086.144,3.106.339,4.212-.278a1.8,1.8,0,0,0,.229-.145c.008,0,.014-.011.02-.02.151-.171.343-.389.424-.508a.19.19,0,0,0,.043-.071c.428-1.577-.27-3.217-.3-4.846a2.9,2.9,0,0,1,0-.3c.068-1.892.121-3.774.165-5.663q.133-5.21.1-10.433c-.024-2.258.248-4.73-.708-6.858-1.057-2.34-3.689-2.391-4.683-4.686-.4-.916-.609-1.9-.995-2.821a8.088,8.088,0,0,0-6.889-4.808c-4.592-.234-8.715,3.485-13.3,3.147a34.6,34.6,0,0,1-3.516-.669c-3.721-.7-8.02.362-10.112,3.51A4.821,4.821,0,0,0,26.617,308.131Z" transform="translate(-26.309 -297.638)" fill="#27debf"/>
            </g>
          </g>
          <g id="Group_12" data-name="Group 12" transform="translate(4.217 5.837)">
            <path id="Path_10" data-name="Path 10" d="M67.039,329.651l.031-.008a.39.39,0,0,0,.277-.479c-6.346-23.812-31.434-27.253-37.3-26.828a.392.392,0,0,0,.056.782c5.742-.415,30.282,2.952,36.492,26.249A.39.39,0,0,0,67.039,329.651Z" transform="translate(-29.679 -302.303)" fill="#fff"/>
          </g>
          <g id="Group_13" data-name="Group 13" transform="translate(13.239 15.168)">
            <path id="Path_11" data-name="Path 11" d="M37.353,315.712a.394.394,0,0,0,.206-.11,20.857,20.857,0,0,1,17.074-4.81.392.392,0,0,0,.114-.776A21.654,21.654,0,0,0,37,315.05a.393.393,0,0,0,.35.662Z" transform="translate(-36.889 -309.76)" fill="#fff"/>
          </g>
        </g>
      </g>
    </g>
    <g id="Device" transform="translate(239.732 210.453)">
      <g id="Device-2" data-name="Device">
        <g id="Group_15" data-name="Group 15" transform="translate(2.104)">
          <path id="Path_12" data-name="Path 12" d="M451.852,274.525,362.483,326.24a7.941,7.941,0,0,1-7.187,0L199.829,236.472c-1.984-1.145-1.984-3,0-4.149l89.37-51.716a7.941,7.941,0,0,1,7.187,0l155.466,89.768C453.836,271.521,453.836,273.379,451.852,274.525Z" transform="translate(-198.341 -179.747)" fill="#37474f"/>
        </g>
        <g id="Group_16" data-name="Group 16" transform="translate(195.816 111.539)">
          <path id="Path_13" data-name="Path 13" d="M365.209,275.849a11.024,11.024,0,0,1-9.982,0c-2.756-1.592-2.756-4.17,0-5.763a11.031,11.031,0,0,1,9.982,0C367.966,271.678,367.966,274.258,365.209,275.849Z" transform="translate(-353.16 -268.892)" fill="#263238"/>
        </g>
        <g id="Group_17" data-name="Group 17" transform="translate(162.653 91.016)">
          <path id="Path_14" data-name="Path 14" d="M330.248,307.967l89.369-51.715c1.774-1.025,1.958-2.618.558-3.762a8.031,8.031,0,0,1,3.035,5.837V261.7a7.94,7.94,0,0,1-3.594,6.224l-89.369,51.716a7.342,7.342,0,0,1-3.593.86V308.826A7.342,7.342,0,0,0,330.248,307.967Z" transform="translate(-326.655 -252.489)" fill="#455a64"/>
        </g>
        <g id="Group_18" data-name="Group 18" transform="translate(0 52.961)">
          <path id="Path_15" data-name="Path 15" d="M200.253,237.516a7.944,7.944,0,0,1-3.594-6.224v-3.38a8.034,8.034,0,0,1,3.038-5.838c-1.4,1.145-1.221,2.739.556,3.764l155.466,89.768a7.345,7.345,0,0,0,3.594.86v11.678a7.346,7.346,0,0,1-3.594-.86Z" transform="translate(-196.659 -222.075)" fill="#263238"/>
        </g>
        <g id="Group_19" data-name="Group 19" transform="translate(21.497 11.804)">
          <path id="Path_16" data-name="Path 16" d="M343.665,313.035l84.292-48.789a1.314,1.314,0,0,0,0-2.49L303.367,189.7a4.764,4.764,0,0,0-4.312,0l-84.322,48.781a1.314,1.314,0,0,0,0,2.49l124.62,72.067A4.761,4.761,0,0,0,343.665,313.035Z" transform="translate(-213.84 -189.181)" fill="#fafafa"/>
        </g>
        <g id="Group_24" data-name="Group 24" transform="translate(34.293 18.641)">
          <g id="Group_20" data-name="Group 20">
            <path id="Path_17" data-name="Path 17" d="M225.189,239.309,265.5,262.6a5.99,5.99,0,0,0,5.418,0l70.82-40.886c1.5-.863,1.5-2.265,0-3.128l-40.308-23.289a5.986,5.986,0,0,0-5.418,0l-70.82,40.888C223.693,237.045,223.693,238.445,225.189,239.309Z" transform="translate(-224.067 -194.646)" fill="#ebebeb"/>
          </g>
          <g id="Group_23" data-name="Group 23" transform="translate(24.328 7.095)">
            <g id="Group_21" data-name="Group 21" transform="translate(0 24.272)">
              <path id="Path_18" data-name="Path 18" d="M249.914,221.88l10.343,2.026a3.405,3.405,0,0,0,1.924-.176l8.753-3.771c1.39-.6,3.367-.018,3.344.983l-.14,6.3c-.009.4.322.773.885,1l8.917,3.641c1.415.578,1.069,1.843-.588,2.141l-10.43,1.872a1.915,1.915,0,0,0-1.376.8l-3.242,6.021c-.516.956-2.706,1.156-3.709.339l-6.3-5.149a2.8,2.8,0,0,0-1.735-.51l-10.922.081c-1.734.013-2.741-1.129-1.7-1.932l6.531-5.054a.821.821,0,0,0,.305-1.11l-3.508-5.972C246.7,222.464,248.271,221.558,249.914,221.88Z" transform="translate(-243.51 -219.715)" fill="#fafafa"/>
            </g>
            <g id="Group_22" data-name="Group 22" transform="translate(28.618)">
              <path id="Path_19" data-name="Path 19" d="M267.173,213.568l22.163-12.795a3.252,3.252,0,0,1,2.9-.2c.706.408.549,1.159-.349,1.677l-22.161,12.795a3.258,3.258,0,0,1-2.9.2C266.119,214.836,266.274,214.085,267.173,213.568Z" transform="translate(-266.382 -200.316)" fill="#fafafa"/>
              <path id="Path_20" data-name="Path 20" d="M271.636,216.146,293.8,203.352a3.256,3.256,0,0,1,2.9-.2c.706.408.549,1.159-.349,1.677l-22.161,12.795a3.254,3.254,0,0,1-2.9.2C270.582,217.415,270.737,216.664,271.636,216.146Z" transform="translate(-265.261 -199.668)" fill="#fafafa"/>
              <path id="Path_21" data-name="Path 21" d="M276.1,218.725l22.163-12.795a3.255,3.255,0,0,1,2.9-.2c.7.408.549,1.159-.349,1.677l-22.161,12.8a3.258,3.258,0,0,1-2.9.2C275.045,220,275.2,219.245,276.1,218.725Z" transform="translate(-264.14 -199.021)" fill="#fafafa"/>
              <path id="Path_22" data-name="Path 22" d="M280.562,221.306l22.161-12.8a3.262,3.262,0,0,1,2.9-.2c.7.408.549,1.16-.349,1.678l-22.161,12.795a3.258,3.258,0,0,1-2.9.2C279.508,222.574,279.663,221.824,280.562,221.306Z" transform="translate(-263.019 -198.373)" fill="#fafafa"/>
              <path id="Path_23" data-name="Path 23" d="M285.025,223.885l22.161-12.795a3.254,3.254,0,0,1,2.9-.2c.7.408.549,1.159-.349,1.677l-22.161,12.795a3.258,3.258,0,0,1-2.9.2C283.971,225.153,284.126,224.4,285.025,223.885Z" transform="translate(-261.898 -197.725)" fill="#fafafa"/>
              <path id="Path_24" data-name="Path 24" d="M289.488,226.463l22.161-12.795a3.258,3.258,0,0,1,2.9-.2c.7.408.549,1.159-.349,1.677l-22.161,12.8a3.258,3.258,0,0,1-2.9.2C288.434,227.732,288.589,226.981,289.488,226.463Z" transform="translate(-260.776 -197.077)" fill="#fafafa"/>
            </g>
          </g>
          <path id="Path_25" data-name="Path 25" d="M264.841,258.681l1.837,1.06a3.594,3.594,0,0,0,3.251,0l42.487-24.535a.99.99,0,0,0,0-1.877l-1.834-1.06a3.594,3.594,0,0,0-3.251,0L264.841,256.8A.99.99,0,0,0,264.841,258.681Z" transform="translate(-213.993 -185.292)" fill="#e0e0e0"/>
          <path id="Path_26" data-name="Path 26" d="M329.855,218.2l1.832,1.059a.991.991,0,0,1,0,1.877L314.607,231a3.594,3.594,0,0,1-3.251,0l-1.833-1.059a.99.99,0,0,1,0-1.877L326.6,218.2A3.594,3.594,0,0,1,329.855,218.2Z" transform="translate(-202.769 -188.826)" fill="#e0e0e0"/>
        </g>
        <g id="Group_29" data-name="Group 29" transform="translate(95.323 53.863)">
          <g id="Group_25" data-name="Group 25">
            <path id="Path_27" data-name="Path 27" d="M273.965,267.458l40.309,23.288a5.99,5.99,0,0,0,5.418,0l70.82-40.886c1.5-.863,1.5-2.263,0-3.128L350.2,223.443a5.99,5.99,0,0,0-5.418,0l-70.82,40.887C272.47,265.193,272.47,266.595,273.965,267.458Z" transform="translate(-272.844 -222.796)" fill="#ebebeb"/>
          </g>
          <g id="Group_28" data-name="Group 28" transform="translate(24.327 7.095)">
            <g id="Group_26" data-name="Group 26" transform="translate(0 24.272)">
              <path id="Path_28" data-name="Path 28" d="M298.691,250.03l10.343,2.024a3.405,3.405,0,0,0,1.924-.175l8.753-3.772c1.39-.6,3.366-.018,3.343.985l-.139,6.3c-.009.4.322.772.885,1l8.916,3.641c1.416.578,1.07,1.843-.587,2.141l-10.43,1.871a1.919,1.919,0,0,0-1.376.8l-3.242,6.021c-.515.957-2.706,1.157-3.709.34l-6.3-5.149a2.8,2.8,0,0,0-1.737-.511l-10.921.08c-1.735.014-2.741-1.129-1.7-1.931l6.533-5.054a.821.821,0,0,0,.3-1.111l-3.507-5.972C295.479,250.613,297.047,249.708,298.691,250.03Z" transform="translate(-292.287 -247.864)" fill="#fafafa"/>
            </g>
            <g id="Group_27" data-name="Group 27" transform="translate(28.618)">
              <path id="Path_29" data-name="Path 29" d="M315.95,241.716l22.161-12.795a3.258,3.258,0,0,1,2.9-.2c.7.408.549,1.159-.349,1.677l-22.161,12.8a3.258,3.258,0,0,1-2.9.2C314.9,242.985,315.051,242.236,315.95,241.716Z" transform="translate(-315.159 -228.466)" fill="#fafafa"/>
              <path id="Path_30" data-name="Path 30" d="M320.413,244.3l22.161-12.8a3.258,3.258,0,0,1,2.9-.2c.7.408.549,1.159-.349,1.678l-22.161,12.795a3.258,3.258,0,0,1-2.9.2C319.359,245.565,319.514,244.815,320.413,244.3Z" transform="translate(-314.038 -227.818)" fill="#fafafa"/>
              <path id="Path_31" data-name="Path 31" d="M324.876,246.876l22.161-12.795a3.254,3.254,0,0,1,2.9-.2c.7.408.549,1.159-.349,1.677L327.43,248.352a3.258,3.258,0,0,1-2.9.2C323.821,248.144,323.977,247.394,324.876,246.876Z" transform="translate(-312.917 -227.17)" fill="#fafafa"/>
              <path id="Path_32" data-name="Path 32" d="M329.339,249.454,351.5,236.66a3.258,3.258,0,0,1,2.9-.2c.7.408.549,1.159-.349,1.677l-22.161,12.795a3.254,3.254,0,0,1-2.9.2C328.284,250.723,328.44,249.972,329.339,249.454Z" transform="translate(-311.796 -226.522)" fill="#fafafa"/>
              <path id="Path_33" data-name="Path 33" d="M333.8,252.033l22.163-12.795a3.258,3.258,0,0,1,2.9-.2c.7.408.548,1.159-.349,1.677l-22.161,12.8a3.258,3.258,0,0,1-2.9.2C332.747,253.3,332.9,252.553,333.8,252.033Z" transform="translate(-310.675 -225.874)" fill="#fafafa"/>
              <path id="Path_34" data-name="Path 34" d="M338.264,254.614l22.163-12.8a3.258,3.258,0,0,1,2.9-.2c.7.407.548,1.159-.349,1.677L340.819,256.09a3.258,3.258,0,0,1-2.9.2C337.21,255.882,337.366,255.132,338.264,254.614Z" transform="translate(-309.554 -225.226)" fill="#fafafa"/>
            </g>
          </g>
          <path id="Path_35" data-name="Path 35" d="M313.618,286.83l1.837,1.061a3.59,3.59,0,0,0,3.251,0l42.487-24.534a.99.99,0,0,0,0-1.877l-1.836-1.06a3.594,3.594,0,0,0-3.251,0l-42.49,24.535A.99.99,0,0,0,313.618,286.83Z" transform="translate(-262.77 -213.442)" fill="#e0e0e0"/>
          <path id="Path_36" data-name="Path 36" d="M378.631,246.349l1.833,1.057a.991.991,0,0,1,0,1.877l-17.08,9.861a3.59,3.59,0,0,1-3.251,0l-1.832-1.059a.99.99,0,0,1,0-1.877l17.08-9.86A3.587,3.587,0,0,1,378.631,246.349Z" transform="translate(-251.545 -216.976)" fill="#e0e0e0"/>
        </g>
        <g id="Group_30" data-name="Group 30" transform="translate(53.175 29.051)">
          <path id="Path_37" data-name="Path 37" d="M241.817,204.5a2.431,2.431,0,0,1-2.2,0,.671.671,0,0,1,0-1.271,2.431,2.431,0,0,1,2.2,0A.671.671,0,0,1,241.817,204.5Z" transform="translate(-239.158 -202.965)" fill="#263238"/>
        </g>
        <g id="Group_33" data-name="Group 33" transform="translate(46.996 25.639)">
          <g id="Group_31" data-name="Group 31" transform="translate(0 11.866)">
            <path id="Path_38" data-name="Path 38" d="M239.538,212.793a4.872,4.872,0,0,1-4.406,0,1.342,1.342,0,0,1,0-2.544,4.864,4.864,0,0,1,4.406,0A1.343,1.343,0,0,1,239.538,212.793Z" transform="translate(-234.219 -209.722)" fill="#263238"/>
          </g>
          <g id="Group_32" data-name="Group 32" transform="translate(7.843)">
            <path id="Path_39" data-name="Path 39" d="M241.069,210.748c-.811-.469-.768-1.252.1-1.752l14.492-8.367a3.358,3.358,0,0,1,3.034-.056c.811.468.768,1.252-.1,1.752L244.1,210.692A3.358,3.358,0,0,1,241.069,210.748Z" transform="translate(-240.488 -200.238)" fill="#263238"/>
          </g>
        </g>
      </g>
    </g>
    <g id="Newspaper" transform="translate(61.85 104.546)">
      <g id="News_Paper" data-name="News Paper">
        <path id="Path_40" data-name="Path 40" d="M251.69,114.251v2.94l-10.161,5.868h-.011l-15.241,8.809L91.759,209.531a5.588,5.588,0,0,0-1.913,2.016,5.469,5.469,0,0,0-.8,2.676v178.8c0,9.723-6.833,13.663-15.241,8.8s-15.252-16.679-15.252-26.4v-178.8a6.007,6.007,0,0,1,2.715-4.692l149.759-86.471L225.5,97.1a5.525,5.525,0,0,1,.776,2.691l.014,2.726L66.335,195.054a5.335,5.335,0,0,0-1.813,1.877,5.511,5.511,0,0,0-.888,2.815V378.357c0,6.483,4.553,14.351,10.171,17.593s10.161.613,10.161-5.869v-178.8a5.947,5.947,0,0,1,2.715-4.692L250.94,111.749A5.225,5.225,0,0,1,251.69,114.251Z" transform="translate(-53.472 -94.603)" fill="#e0e0e0"/>
        <path id="Path_41" data-name="Path 41" d="M234.395,104.465v8.608L79.544,202.485a6,6,0,0,0-2.715,4.692v178.8c0,3.241-2.265,4.554-5.067,2.928a11.185,11.185,0,0,1-5.08-8.8v-178.8a5.586,5.586,0,0,1,.79-2.676,5.8,5.8,0,0,1,1.913-2.016l164.248-94.829A5.623,5.623,0,0,1,234.395,104.465Z" transform="translate(-51.43 -93.425)" fill="#e0e0e0"/>
        <g id="Group_34" data-name="Group 34" transform="translate(0 96.41)">
          <path id="Path_42" data-name="Path 42" d="M95.933,195.63a5.493,5.493,0,0,0-.79,2.665V375.554a28.911,28.911,0,0,1-.249,3.854c-.051.339-.1.663-.15.976s-.113.588-.176.888c-.063.264-.124.526-.2.776s-.126.488-.2.726a12.539,12.539,0,0,1-5.457,7.332c-3.641,2.09-8.52,1.841-13.888-1.264-11.236-6.481-20.332-22.946-20.332-36.761V174.822a5.493,5.493,0,0,1,.79-2.665l5.092,2.929a5.458,5.458,0,0,0-.8,2.676v178.8c0,9.722,6.832,21.546,15.252,26.4s15.241.927,15.241-8.8v-178.8a5.469,5.469,0,0,1,.8-2.676Z" transform="translate(-54.492 -172.157)" fill="#ebebeb"/>
          <path id="Path_43" data-name="Path 43" d="M83.732,188.573a5.541,5.541,0,0,0-.787,2.665v178.8c0,6.483-4.556,9.109-10.161,5.869S62.613,364.8,62.613,358.313V179.7a5.511,5.511,0,0,1,.888-2.815l4.992,2.879a5.586,5.586,0,0,0-.79,2.676v178.8a11.185,11.185,0,0,0,5.08,8.8c2.8,1.627,5.067.313,5.067-2.928v-178.8a5.478,5.478,0,0,1,.8-2.676Z" transform="translate(-52.452 -170.969)" fill="#ebebeb"/>
        </g>
        <g id="Group_35" data-name="Group 35" transform="translate(0.79)">
          <path id="Path_44" data-name="Path 44" d="M226.363,97.6l-14.475,8.358L62.129,192.427a5.509,5.509,0,0,0-1.913,2.016l-5.092-2.929a5.523,5.523,0,0,1,1.914-2.027c17.24-9.947,112.271-64.825,149.769-86.471l2.892-1.677,2.865-1.652,2.514-1.451,1.49-.863,2.765-1.589a5.808,5.808,0,0,1,5.255-.1A5.057,5.057,0,0,1,226.363,97.6Z" transform="translate(-55.123 -95.104)" fill="#fafafa"/>
          <path id="Path_45" data-name="Path 45" d="M254.791,114.008v.012l-14.478,8.359L214.9,137.043,90.557,208.837a5.656,5.656,0,0,0-1.927,2.027l-5.067-2.939a5.588,5.588,0,0,1,1.913-2.016l134.518-77.663,15.241-8.809h.011l10.161-5.868,2.364-1.363.189-.114a5.8,5.8,0,0,1,5-.025c.024.013.036.013.049.025a2.84,2.84,0,0,1,.264.163A5.379,5.379,0,0,1,254.791,114.008Z" transform="translate(-47.979 -90.981)" fill="#fafafa"/>
          <path id="Path_46" data-name="Path 46" d="M234.476,102.288,70.228,197.117a5.8,5.8,0,0,0-1.913,2.016l-4.992-2.879a5.335,5.335,0,0,1,1.813-1.877l159.956-92.54,2.351-1.364a5.815,5.815,0,0,1,5.256-.1A5.194,5.194,0,0,1,234.476,102.288Z" transform="translate(-53.063 -93.925)" fill="#fafafa"/>
          <path id="Path_47" data-name="Path 47" d="M246.7,109.3,82.44,204.146a5.579,5.579,0,0,0-1.928,2.027l-5.08-2.939a5.532,5.532,0,0,1,1.914-2.016L232.2,111.806l7.457-4.3a5.809,5.809,0,0,1,5.256-.089A5.028,5.028,0,0,1,246.7,109.3Z" transform="translate(-50.021 -92.158)" fill="#fafafa"/>
        </g>
        <g id="Group_36" data-name="Group 36" transform="translate(33.98 23.039)">
          <path id="Path_48" data-name="Path 48" d="M256.048,116.195V293.454c0,7.27-2.516,12.362-6.545,14.614L81.65,404.971a12.811,12.811,0,0,0,5.9-8.192c.075-.25.136-.512.2-.776.064-.3.114-.587.176-.888s.1-.637.15-.976a28.911,28.911,0,0,0,.249-3.854V213.026a5.493,5.493,0,0,1,.79-2.665,5.656,5.656,0,0,1,1.927-2.027l124.346-71.795,25.411-14.663,14.478-8.359A5.51,5.51,0,0,1,256.048,116.195Z" transform="translate(-81.65 -113.517)" fill="#f5f5f5"/>
        </g>
        <path id="Path_49" data-name="Path 49" d="M101.881,194.628l25.077-14.479c1.5-.863,2.709-.163,2.709,1.564v34.824a5.993,5.993,0,0,1-2.709,4.692l-25.078,14.478c-1.5.863-2.708.164-2.709-1.564V199.32A5.989,5.989,0,0,1,101.881,194.628Z" transform="translate(-43.268 -73.832)" fill="#455a64"/>
        <path id="Path_50" data-name="Path 50" d="M99.173,251.016,236.4,171.788v5.869L99.173,256.885Z" transform="translate(-43.268 -75.84)" fill="#27debf"/>
        <path id="Path_51" data-name="Path 51" d="M99.173,251.016,236.4,171.788v5.869L99.173,256.885Z" transform="translate(-43.268 -75.84)" fill="#18a4e0" opacity="0.4"/>
        <g id="Group_43" data-name="Group 43" transform="translate(55.905 114.27)">
          <path id="Path_52" data-name="Path 52" d="M100.8,251.633,128.042,235.9c.9-.518,1.625-.1,1.625.938v54.933a3.593,3.593,0,0,1-1.625,2.815L100.8,310.319c-.9.519-1.625.1-1.625-.938V254.448A3.591,3.591,0,0,1,100.8,251.633Z" transform="translate(-99.173 -174.059)" fill="#f0f0f0"/>
          <path id="Path_53" data-name="Path 53" d="M100.8,303.228,128.042,287.5c.9-.518,1.625-.1,1.625.938v42.987L99.173,349.031V306.043A3.593,3.593,0,0,1,100.8,303.228Z" transform="translate(-99.173 -161.097)" fill="#f0f0f0"/>
          <path id="Path_54" data-name="Path 54" d="M129.232,235.217l27.244-15.73c.9-.518,1.625-.1,1.625.938v72.54a3.589,3.589,0,0,1-1.625,2.815l-27.244,15.73c-.9.518-1.625.1-1.625-.938v-72.54A3.593,3.593,0,0,1,129.232,235.217Z" transform="translate(-92.03 -178.183)" fill="#f0f0f0"/>
          <path id="Path_55" data-name="Path 55" d="M157.667,218.8l27.244-15.73c.9-.518,1.625-.1,1.625.938v54.936a3.6,3.6,0,0,1-1.625,2.815l-27.244,15.729c-.9.518-1.625.1-1.625-.938V221.615A3.589,3.589,0,0,1,157.667,218.8Z" transform="translate(-84.887 -182.307)" fill="#f0f0f0"/>
          <path id="Path_56" data-name="Path 56" d="M186.1,202.383l27.244-15.729c.9-.519,1.625-.1,1.625.938v72.542a3.591,3.591,0,0,1-1.625,2.815L186.1,278.678c-.9.519-1.625.1-1.625-.938V205.2A3.592,3.592,0,0,1,186.1,202.383Z" transform="translate(-77.744 -186.431)" fill="#f0f0f0"/>
          <path id="Path_57" data-name="Path 57" d="M129.232,300.883l27.244-15.729c.9-.518,1.625-.1,1.625.938v25.381l-30.5,17.606V303.7A3.6,3.6,0,0,1,129.232,300.883Z" transform="translate(-92.03 -161.687)" fill="#f0f0f0"/>
          <path id="Path_58" data-name="Path 58" d="M156.041,273.211V316.2l30.495-17.606V255.6c0-1.036-.728-1.456-1.627-.938L157.666,270.4A3.593,3.593,0,0,0,156.041,273.211Z" transform="translate(-84.887 -169.345)" fill="#f0f0f0"/>
          <path id="Path_59" data-name="Path 59" d="M186.1,268.049l27.244-15.729c.9-.518,1.625-.1,1.625.938V278.64l-30.495,17.606V270.865A3.593,3.593,0,0,1,186.1,268.049Z" transform="translate(-77.744 -169.935)" fill="#f0f0f0"/>
          <path id="Path_60" data-name="Path 60" d="M133.295,302.064l17.079-9.861c.9-.519,1.625-.1,1.625.938v13.852a3.589,3.589,0,0,1-1.625,2.815l-17.08,9.861c-.9.518-1.625.1-1.625-.938V304.879A3.594,3.594,0,0,1,133.295,302.064Z" transform="translate(-91.01 -159.916)" fill="#e0e0e0"/>
          <path id="Path_61" data-name="Path 61" d="M190.163,269.232l17.08-9.862c.9-.518,1.625-.1,1.625.938v13.853a3.593,3.593,0,0,1-1.625,2.815l-17.08,9.861c-.9.518-1.625.1-1.625-.938V272.047A3.6,3.6,0,0,1,190.163,269.232Z" transform="translate(-76.723 -168.164)" fill="#e0e0e0"/>
          <g id="Group_37" data-name="Group 37" transform="translate(5.081 70.425)">
            <path id="Path_62" data-name="Path 62" d="M104.861,252.8l17.079-9.862c.9-.518,1.625-.1,1.625.938V257.73a3.594,3.594,0,0,1-1.625,2.815l-17.08,9.861c-.9.518-1.625.1-1.625-.938V255.616A3.593,3.593,0,0,1,104.861,252.8Z" transform="translate(-103.234 -242.717)" fill="#e0e0e0"/>
            <path id="Path_63" data-name="Path 63" d="M104.317,269.579l18.164-10.486c.6-.345,1.084-.065,1.084.626v.433a2.4,2.4,0,0,1-1.084,1.877l-18.163,10.485c-.6.347-1.084.066-1.084-.626v-.432A2.4,2.4,0,0,1,104.317,269.579Z" transform="translate(-103.234 -238.64)" fill="#e0e0e0"/>
            <path id="Path_64" data-name="Path 64" d="M104.317,274.269l18.164-10.486c.6-.345,1.084-.065,1.084.626v.433a2.4,2.4,0,0,1-1.084,1.877L104.319,277.2c-.6.345-1.084.065-1.084-.626v-.433A2.4,2.4,0,0,1,104.317,274.269Z" transform="translate(-103.234 -237.462)" fill="#e0e0e0"/>
            <path id="Path_65" data-name="Path 65" d="M104.317,278.959l18.164-10.486c.6-.345,1.084-.065,1.084.626v.433a2.4,2.4,0,0,1-1.084,1.877l-18.163,10.486c-.6.345-1.084.065-1.084-.626v-.433A2.4,2.4,0,0,1,104.317,278.959Z" transform="translate(-103.234 -236.284)" fill="#e0e0e0"/>
            <path id="Path_66" data-name="Path 66" d="M104.317,283.649l18.164-10.486c.6-.345,1.084-.065,1.084.626v.433a2.4,2.4,0,0,1-1.084,1.877l-18.163,10.486c-.6.345-1.084.065-1.084-.626v-.433A2.4,2.4,0,0,1,104.317,283.649Z" transform="translate(-103.234 -235.105)" fill="#e0e0e0"/>
            <path id="Path_67" data-name="Path 67" d="M104.317,288.339l18.164-10.485c.6-.347,1.084-.066,1.084.626v.432a2.4,2.4,0,0,1-1.084,1.877l-18.163,10.486c-.6.345-1.084.065-1.084-.626v-.433A2.4,2.4,0,0,1,104.317,288.339Z" transform="translate(-103.234 -233.927)" fill="#e0e0e0"/>
          </g>
          <g id="Group_38" data-name="Group 38" transform="translate(40.658 49.884)">
            <path id="Path_68" data-name="Path 68" d="M133.295,236.382l17.079-9.861c.9-.518,1.625-.1,1.625.938v13.853a3.591,3.591,0,0,1-1.625,2.815l-17.08,9.861c-.9.518-1.625.1-1.625-.938V239.2A3.6,3.6,0,0,1,133.295,236.382Z" transform="translate(-131.668 -226.3)" fill="#e0e0e0"/>
            <path id="Path_69" data-name="Path 69" d="M132.751,253.162l18.164-10.486c.6-.345,1.084-.065,1.084.626v.433a2.4,2.4,0,0,1-1.084,1.877L132.753,256.1c-.6.345-1.084.066-1.084-.626v-.432A2.392,2.392,0,0,1,132.751,253.162Z" transform="translate(-131.668 -222.223)" fill="#e0e0e0"/>
            <path id="Path_70" data-name="Path 70" d="M132.751,257.852l18.164-10.486c.6-.345,1.084-.065,1.084.626v.433a2.4,2.4,0,0,1-1.084,1.877l-18.163,10.485c-.6.345-1.084.066-1.084-.626v-.432A2.392,2.392,0,0,1,132.751,257.852Z" transform="translate(-131.668 -221.045)" fill="#e0e0e0"/>
            <path id="Path_71" data-name="Path 71" d="M132.751,262.542l18.164-10.486c.6-.345,1.084-.065,1.084.626v.433a2.4,2.4,0,0,1-1.084,1.877l-18.163,10.485c-.6.347-1.084.066-1.084-.626v-.432A2.392,2.392,0,0,1,132.751,262.542Z" transform="translate(-131.668 -219.867)" fill="#e0e0e0"/>
            <path id="Path_72" data-name="Path 72" d="M132.751,267.232l18.164-10.486c.6-.345,1.084-.065,1.084.626v.433a2.4,2.4,0,0,1-1.084,1.877l-18.163,10.486c-.6.345-1.084.065-1.084-.627v-.432A2.392,2.392,0,0,1,132.751,267.232Z" transform="translate(-131.668 -218.688)" fill="#e0e0e0"/>
            <path id="Path_73" data-name="Path 73" d="M132.751,271.922l18.164-10.486c.6-.345,1.084-.065,1.084.626v.433a2.4,2.4,0,0,1-1.084,1.877l-18.163,10.485c-.6.347-1.084.066-1.084-.626V273.8A2.392,2.392,0,0,1,132.751,271.922Z" transform="translate(-131.668 -217.51)" fill="#e0e0e0"/>
            <path id="Path_74" data-name="Path 74" d="M132.751,276.614l18.164-10.486c.6-.345,1.084-.065,1.084.626v.433a2.4,2.4,0,0,1-1.084,1.877l-18.163,10.486c-.6.345-1.084.065-1.084-.626v-.433A2.394,2.394,0,0,1,132.751,276.614Z" transform="translate(-131.668 -216.332)" fill="#e0e0e0"/>
            <path id="Path_75" data-name="Path 75" d="M132.751,281.3l18.164-10.486c.6-.345,1.084-.065,1.084.626v.433a2.4,2.4,0,0,1-1.084,1.877l-18.163,10.486c-.6.345-1.084.065-1.084-.626v-.433A2.392,2.392,0,0,1,132.751,281.3Z" transform="translate(-131.668 -215.153)" fill="#e0e0e0"/>
            <path id="Path_76" data-name="Path 76" d="M132.751,286l18.164-10.486c.6-.347,1.084-.066,1.084.626v.432a2.4,2.4,0,0,1-1.084,1.877l-18.163,10.486c-.6.345-1.084.065-1.084-.626v-.433A2.39,2.39,0,0,1,132.751,286Z" transform="translate(-131.668 -213.975)" fill="#e0e0e0"/>
          </g>
          <g id="Group_39" data-name="Group 39" transform="translate(5.081 134.989)">
            <path id="Path_77" data-name="Path 77" d="M104.861,304.4l17.079-9.861c.9-.518,1.625-.1,1.625.938v13.853a3.594,3.594,0,0,1-1.625,2.815l-17.08,9.861c-.9.518-1.625.1-1.625-.938V307.216A3.6,3.6,0,0,1,104.861,304.4Z" transform="translate(-103.234 -294.318)" fill="#e0e0e0"/>
            <path id="Path_78" data-name="Path 78" d="M104.317,321.18l18.164-10.486c.6-.345,1.084-.065,1.084.626v.433a2.4,2.4,0,0,1-1.084,1.877l-18.163,10.485c-.6.345-1.084.065-1.084-.626v-.432A2.4,2.4,0,0,1,104.317,321.18Z" transform="translate(-103.234 -290.241)" fill="#e0e0e0"/>
            <path id="Path_79" data-name="Path 79" d="M104.317,325.87l18.164-10.486c.6-.345,1.084-.065,1.084.626v.433a2.4,2.4,0,0,1-1.084,1.877L104.319,328.8c-.6.345-1.084.065-1.084-.626v-.432A2.4,2.4,0,0,1,104.317,325.87Z" transform="translate(-103.234 -289.063)" fill="#e0e0e0"/>
            <path id="Path_80" data-name="Path 80" d="M104.317,330.56l18.164-10.486c.6-.345,1.084-.065,1.084.626v.433a2.4,2.4,0,0,1-1.084,1.877l-18.163,10.485c-.6.345-1.084.066-1.084-.626v-.432A2.4,2.4,0,0,1,104.317,330.56Z" transform="translate(-103.234 -287.885)" fill="#e0e0e0"/>
          </g>
          <g id="Group_40" data-name="Group 40" transform="translate(76.238 29.345)">
            <path id="Path_81" data-name="Path 81" d="M161.729,219.969l17.079-9.862c.9-.518,1.625-.1,1.625.938V224.9a3.591,3.591,0,0,1-1.625,2.815l-17.079,9.861c-.9.518-1.625.1-1.625-.938V222.784A3.593,3.593,0,0,1,161.729,219.969Z" transform="translate(-160.104 -209.885)" fill="#e0e0e0"/>
            <path id="Path_82" data-name="Path 82" d="M161.188,236.747l18.163-10.486c.6-.345,1.084-.065,1.084.626v.433a2.393,2.393,0,0,1-1.084,1.877l-18.163,10.486c-.6.345-1.084.065-1.084-.627v-.432A2.393,2.393,0,0,1,161.188,236.747Z" transform="translate(-160.104 -205.808)" fill="#e0e0e0"/>
            <path id="Path_83" data-name="Path 83" d="M161.188,241.437l18.163-10.486c.6-.345,1.084-.065,1.084.626v.433a2.393,2.393,0,0,1-1.084,1.877l-18.163,10.486c-.6.345-1.084.065-1.084-.626v-.433A2.393,2.393,0,0,1,161.188,241.437Z" transform="translate(-160.104 -204.63)" fill="#e0e0e0"/>
            <path id="Path_84" data-name="Path 84" d="M161.188,246.127l18.163-10.486c.6-.345,1.084-.065,1.084.626v.433a2.393,2.393,0,0,1-1.084,1.877l-18.163,10.486c-.6.345-1.084.065-1.084-.626V248A2.4,2.4,0,0,1,161.188,246.127Z" transform="translate(-160.104 -203.452)" fill="#e0e0e0"/>
            <path id="Path_85" data-name="Path 85" d="M161.188,250.817l18.163-10.486c.6-.345,1.084-.065,1.084.626v.433a2.393,2.393,0,0,1-1.084,1.877l-18.163,10.486c-.6.345-1.084.065-1.084-.626v-.433A2.393,2.393,0,0,1,161.188,250.817Z" transform="translate(-160.104 -202.273)" fill="#e0e0e0"/>
            <path id="Path_86" data-name="Path 86" d="M161.188,255.508l18.163-10.486c.6-.347,1.084-.066,1.084.626v.432a2.393,2.393,0,0,1-1.084,1.877l-18.163,10.486c-.6.345-1.084.065-1.084-.626v-.432A2.391,2.391,0,0,1,161.188,255.508Z" transform="translate(-160.104 -201.095)" fill="#e0e0e0"/>
          </g>
          <g id="Group_41" data-name="Group 41" transform="translate(111.815 8.804)">
            <path id="Path_87" data-name="Path 87" d="M190.163,203.55l17.079-9.861c.9-.518,1.625-.1,1.625.938v13.853a3.591,3.591,0,0,1-1.625,2.815l-17.079,9.861c-.9.518-1.625.1-1.625-.938V206.366A3.6,3.6,0,0,1,190.163,203.55Z" transform="translate(-188.538 -193.468)" fill="#e0e0e0"/>
            <path id="Path_88" data-name="Path 88" d="M189.622,220.33l18.163-10.486c.6-.345,1.084-.065,1.084.626v.433a2.391,2.391,0,0,1-1.084,1.876l-18.163,10.486c-.6.345-1.084.065-1.084-.626v-.432A2.4,2.4,0,0,1,189.622,220.33Z" transform="translate(-188.538 -189.391)" fill="#e0e0e0"/>
            <path id="Path_89" data-name="Path 89" d="M189.622,225.02l18.163-10.486c.6-.345,1.084-.065,1.084.626v.433a2.393,2.393,0,0,1-1.084,1.877l-18.163,10.485c-.6.345-1.084.066-1.084-.626V226.9A2.4,2.4,0,0,1,189.622,225.02Z" transform="translate(-188.538 -188.213)" fill="#e0e0e0"/>
            <path id="Path_90" data-name="Path 90" d="M189.622,229.71l18.163-10.486c.6-.345,1.084-.065,1.084.626v.433a2.393,2.393,0,0,1-1.084,1.877l-18.163,10.485c-.6.347-1.084.066-1.084-.626v-.432A2.4,2.4,0,0,1,189.622,229.71Z" transform="translate(-188.538 -187.035)" fill="#e0e0e0"/>
            <path id="Path_91" data-name="Path 91" d="M189.622,234.4l18.163-10.486c.6-.345,1.084-.065,1.084.626v.433a2.393,2.393,0,0,1-1.084,1.877l-18.163,10.485c-.6.347-1.084.066-1.084-.626v-.432A2.4,2.4,0,0,1,189.622,234.4Z" transform="translate(-188.538 -185.856)" fill="#e0e0e0"/>
            <path id="Path_92" data-name="Path 92" d="M189.622,239.09,207.784,228.6c.6-.345,1.084-.065,1.084.626v.433a2.393,2.393,0,0,1-1.084,1.877l-18.163,10.486c-.6.345-1.084.065-1.084-.626v-.433A2.4,2.4,0,0,1,189.622,239.09Z" transform="translate(-188.538 -184.678)" fill="#e0e0e0"/>
            <path id="Path_93" data-name="Path 93" d="M189.622,243.782,207.784,233.3c.6-.345,1.084-.065,1.084.626v.433a2.393,2.393,0,0,1-1.084,1.877l-18.163,10.486c-.6.345-1.084.065-1.084-.626v-.433A2.4,2.4,0,0,1,189.622,243.782Z" transform="translate(-188.538 -183.5)" fill="#e0e0e0"/>
            <path id="Path_94" data-name="Path 94" d="M189.622,248.472l18.163-10.486c.6-.345,1.084-.065,1.084.626v.433a2.393,2.393,0,0,1-1.084,1.877l-18.163,10.486c-.6.345-1.084.065-1.084-.626v-.433A2.4,2.4,0,0,1,189.622,248.472Z" transform="translate(-188.538 -182.321)" fill="#e0e0e0"/>
            <path id="Path_95" data-name="Path 95" d="M189.622,253.162l18.163-10.486c.6-.345,1.084-.065,1.084.626v.433a2.393,2.393,0,0,1-1.084,1.877L189.622,256.1c-.6.345-1.084.065-1.084-.626v-.433A2.4,2.4,0,0,1,189.622,253.162Z" transform="translate(-188.538 -181.143)" fill="#e0e0e0"/>
          </g>
          <g id="Group_42" data-name="Group 42" transform="translate(76.238 93.909)">
            <path id="Path_96" data-name="Path 96" d="M161.729,271.568l17.079-9.861c.9-.518,1.625-.1,1.625.938V276.5a3.593,3.593,0,0,1-1.625,2.815l-17.079,9.861c-.9.518-1.625.1-1.625-.938V274.384A3.6,3.6,0,0,1,161.729,271.568Z" transform="translate(-160.104 -261.486)" fill="#e0e0e0"/>
            <path id="Path_97" data-name="Path 97" d="M161.188,288.348l18.163-10.486c.6-.345,1.084-.065,1.084.626v.432a2.391,2.391,0,0,1-1.084,1.877l-18.163,10.486c-.6.345-1.084.065-1.084-.626v-.432A2.393,2.393,0,0,1,161.188,288.348Z" transform="translate(-160.104 -257.409)" fill="#e0e0e0"/>
            <path id="Path_98" data-name="Path 98" d="M161.188,293.038l18.163-10.486c.6-.345,1.084-.065,1.084.626v.433a2.4,2.4,0,0,1-1.084,1.877l-18.163,10.485c-.6.345-1.084.066-1.084-.626v-.432A2.393,2.393,0,0,1,161.188,293.038Z" transform="translate(-160.104 -256.231)" fill="#e0e0e0"/>
            <path id="Path_99" data-name="Path 99" d="M161.188,297.728l18.163-10.486c.6-.345,1.084-.065,1.084.626v.433a2.393,2.393,0,0,1-1.084,1.877l-18.163,10.485c-.6.345-1.084.065-1.084-.626V299.6A2.393,2.393,0,0,1,161.188,297.728Z" transform="translate(-160.104 -255.052)" fill="#e0e0e0"/>
          </g>
        </g>
        <g id="Group_44" data-name="Group 44" transform="translate(96.977 49.356)">
          <path id="Path_100" data-name="Path 100" d="M132.375,213.245c-.25-.088-.377-.323-.377-.708a3.523,3.523,0,0,1,.226-1.115l1.353-4.31a2.053,2.053,0,0,1,.564-1.021.637.637,0,0,1,.6.058,4.484,4.484,0,0,0,4.285-.447,6.049,6.049,0,0,0,2.575-2.847,11.436,11.436,0,0,0,.807-4.606V172.961a5.145,5.145,0,0,1,.4-2.137,3.118,3.118,0,0,1,1.334-1.406l2.781-1.605q.94-.542,1.335-.136a2.533,2.533,0,0,1,.394,1.683v25.288a23.686,23.686,0,0,1-2.2,10.3A15.762,15.762,0,0,1,140,212.023Q135.495,214.626,132.375,213.245Z" transform="translate(-131.998 -126.272)" fill="#455a64"/>
          <path id="Path_101" data-name="Path 101" d="M150.984,200.585q-3.365-3.438-3.365-13.218a40.608,40.608,0,0,1,3.365-17.1,23.7,23.7,0,0,1,9.753-11.013q6.351-3.667,9.716-.228t3.365,13.219a40.621,40.621,0,0,1-3.365,17.1,23.644,23.644,0,0,1-9.716,10.991Q154.346,204.025,150.984,200.585ZM165.9,187.023a30.955,30.955,0,0,0,1.748-11.223q0-6.77-1.748-9.2t-5.168-.459a12.279,12.279,0,0,0-5.206,6.447,30.988,30.988,0,0,0-1.747,11.223q0,6.77,1.747,9.2t5.206.439A12.239,12.239,0,0,0,165.9,187.023Z" transform="translate(-128.074 -128.821)" fill="#455a64"/>
          <path id="Path_102" data-name="Path 102" d="M171.414,192.37a2.394,2.394,0,0,1-.394-1.652V156.4a5.15,5.15,0,0,1,.394-2.137,3.037,3.037,0,0,1,1.3-1.384l11.012-6.359q4.135-2.387,6.2-.659t2.067,6.88a17.354,17.354,0,0,1-.846,5.349,13.1,13.1,0,0,1-2.312,4.4q3.872-.267,3.871,6.5a22.105,22.105,0,0,1-.995,6.534,19.365,19.365,0,0,1-3.007,5.933,16.324,16.324,0,0,1-4.981,4.408l-11.012,6.359Q171.809,192.75,171.414,192.37Zm11.257-29.327a5.87,5.87,0,0,0,2.33-2.5,8.385,8.385,0,0,0,.827-3.835q0-2.37-.769-2.939t-2.387.364l-5.45,3.148v8.911Zm.6,16.087a5.837,5.837,0,0,0,2.461-2.78,9.833,9.833,0,0,0,.808-4.026q0-2.487-.94-3.191t-2.631.277l-5.751,3.319v9.9Z" transform="translate(-122.195 -131.89)" fill="#455a64"/>
          <path id="Path_103" data-name="Path 103" d="M193.8,180.035a6.756,6.756,0,0,1-4.342-.183.933.933,0,0,1-.563-.832,3.121,3.121,0,0,1,.186-.92l1.541-4.652a1.554,1.554,0,0,1,.489-.86.594.594,0,0,1,.563.021,7.188,7.188,0,0,0,3.194.123,10.655,10.655,0,0,0,3.646-1.351,9.011,9.011,0,0,0,3.233-2.939,7.358,7.358,0,0,0,1.052-3.991,3.879,3.879,0,0,0-.507-2.253,2.277,2.277,0,0,0-1.5-.868,20.347,20.347,0,0,0-3.063-.2,14.834,14.834,0,0,1-4.078-.482A4.8,4.8,0,0,1,190.9,158.5a9.289,9.289,0,0,1-1.071-4.966,19.234,19.234,0,0,1,2.592-9.918,18.7,18.7,0,0,1,6.842-6.872q5.6-3.232,8.57-1.707a1.026,1.026,0,0,1,.563.832,3.123,3.123,0,0,1-.188.92l-1.541,4.65a1.536,1.536,0,0,1-.488.861.6.6,0,0,1-.564-.021q-2.292-.989-5.563.9A7.477,7.477,0,0,0,196,150.035a3.943,3.943,0,0,0,.47,2.188,2.073,2.073,0,0,0,1.3.872,13.676,13.676,0,0,0,2.594.209l1.051.029a14.819,14.819,0,0,1,4.324.659,4.31,4.31,0,0,1,2.424,2.216,11.441,11.441,0,0,1,.846,5.01,19.016,19.016,0,0,1-2.462,9.435,18.616,18.616,0,0,1-7.122,7.092A19.984,19.984,0,0,1,193.8,180.035Z" transform="translate(-117.705 -134.55)" fill="#455a64"/>
        </g>
      </g>
    </g>
    <g id="Speech_Bubbles" data-name="Speech Bubbles" transform="translate(315.97 75.806)">
      <g id="Tab">
        <g id="Group_45" data-name="Group 45">
          <path id="Path_104" data-name="Path 104" d="M332.888,75.306h0l-.018-.01h0l-5.076-2.939h0a2.278,2.278,0,0,0-2.3.22l-64.653,37.42a7.212,7.212,0,0,0-3.251,5.63V248.879a2.28,2.28,0,0,0,.95,2.1h0l.006,0h0l5.064,2.927.039.023.068.039v-.014a2.315,2.315,0,0,0,2.207-.255L283,243.837V254.1c0,1.815.288,2.87.758,3.158l0,.006,5.04,2.914.016.009.058.034v-.008c.576.308,1.414-.5,2.346-2.469L303.333,232.1l27.243-15.822a7.213,7.213,0,0,0,3.252-5.63V77.393A2.287,2.287,0,0,0,332.888,75.306Z" transform="translate(-257.591 -72.134)" fill="#043353"/>
          <path id="Path_105" data-name="Path 105" d="M332.557,75.227a2.4,2.4,0,0,0-2.177.288l-64.663,37.424a6.517,6.517,0,0,0-2.252,2.365l-5.08-2.94A6.517,6.517,0,0,1,260.637,110L325.3,72.574a2.909,2.909,0,0,1,1.439-.438,1.716,1.716,0,0,1,.851.213Z" transform="translate(-257.392 -72.134)" fill="#043353" opacity="0.4"/>
          <path id="Path_106" data-name="Path 106" d="M278.656,223.382v-.013c-.463-.288-.751-1.339-.751-3.153v-10.26l5.08-2.94v16.141c0,1.727.263,2.778.688,3.128Z" transform="translate(-252.488 -38.25)" fill="#043353" opacity="0.2"/>
          <path id="Path_107" data-name="Path 107" d="M263.651,245.848c-.013,0-.025-.013-.038-.013l-5.067-2.928-.013-.013a2.288,2.288,0,0,1-.938-2.09V107.552a6.674,6.674,0,0,1,.988-3.266l5.08,2.94a6.675,6.675,0,0,0-.988,3.266V243.746A2.261,2.261,0,0,0,263.651,245.848Z" transform="translate(-257.59 -64.057)" fill="#043353" opacity="0.1"/>
        </g>
        <g id="Group_46" data-name="Group 46" transform="translate(15.246 20.308)">
          <path id="Path_108" data-name="Path 108" d="M272.484,115.037l45.409-26.3c1.5-.866,2.706-.168,2.706,1.56v28.947a6,6,0,0,1-2.706,4.7l-45.409,26.3c-1.5.866-2.706.168-2.706-1.56V119.733A6,6,0,0,1,272.484,115.037Z" transform="translate(-269.776 -88.365)" fill="#fafafa"/>
          <path id="Path_109" data-name="Path 109" d="M320.6,122.945a5.809,5.809,0,0,1-2.709,4.5l-45.4,26.215c-1.5.863-2.709.249-2.709-1.371a5.811,5.811,0,0,1,2.709-4.5l45.4-26.214C319.386,120.71,320.6,121.323,320.6,122.945Z" transform="translate(-269.776 -80.121)" fill="#fafafa"/>
          <path id="Path_110" data-name="Path 110" d="M320.6,132.325a5.807,5.807,0,0,1-2.709,4.5l-45.4,26.215c-1.5.863-2.709.25-2.709-1.371a5.807,5.807,0,0,1,2.709-4.5l45.4-26.214C319.386,130.09,320.6,130.7,320.6,132.325Z" transform="translate(-269.776 -77.764)" fill="#fafafa"/>
          <path id="Path_111" data-name="Path 111" d="M320.6,141.7a5.807,5.807,0,0,1-2.709,4.5l-45.4,26.215c-1.5.863-2.709.25-2.709-1.371a5.807,5.807,0,0,1,2.709-4.5l45.4-26.214C319.386,139.47,320.6,140.084,320.6,141.7Z" transform="translate(-269.776 -75.408)" fill="#fafafa"/>
          <path id="Path_112" data-name="Path 112" d="M320.6,151.085a5.807,5.807,0,0,1-2.709,4.5l-45.4,26.215c-1.5.863-2.709.25-2.709-1.371a5.807,5.807,0,0,1,2.709-4.5l45.4-26.214C319.386,148.85,320.6,149.464,320.6,151.085Z" transform="translate(-269.776 -73.052)" fill="#fafafa"/>
          <path id="Path_113" data-name="Path 113" d="M269.776,185.1c0,1.62,1.212,2.233,2.709,1.37l4.747-2.74a5.814,5.814,0,0,0,2.71-4.5c0-1.62-1.212-2.233-2.709-1.37l-4.748,2.741A5.81,5.81,0,0,0,269.776,185.1Z" transform="translate(-269.776 -65.981)" fill="#fafafa"/>
          <path id="Path_114" data-name="Path 114" d="M283.4,179.991c0,1.62,1.212,2.233,2.709,1.37l28.354-16.395a5.807,5.807,0,0,0,2.709-4.5c0-1.622-1.212-2.236-2.709-1.373l-28.355,16.4A5.8,5.8,0,0,0,283.4,179.991Z" transform="translate(-266.353 -70.695)" fill="#fafafa"/>
          <path id="Path_115" data-name="Path 115" d="M269.776,194.479c0,1.62,1.212,2.233,2.709,1.37l4.747-2.741a5.812,5.812,0,0,0,2.71-4.5c0-1.62-1.212-2.233-2.709-1.37l-4.748,2.74A5.813,5.813,0,0,0,269.776,194.479Z" transform="translate(-269.776 -63.625)" fill="#fafafa"/>
          <path id="Path_116" data-name="Path 116" d="M283.4,189.372c0,1.62,1.212,2.233,2.709,1.37l28.354-16.395a5.807,5.807,0,0,0,2.709-4.5c0-1.62-1.212-2.235-2.709-1.371l-28.355,16.4A5.8,5.8,0,0,0,283.4,189.372Z" transform="translate(-266.353 -68.338)" fill="#fafafa"/>
          <path id="Path_117" data-name="Path 117" d="M269.776,203.859c0,1.622,1.212,2.235,2.709,1.371l4.747-2.741a5.812,5.812,0,0,0,2.71-4.5c0-1.62-1.212-2.235-2.709-1.37l-4.748,2.74A5.811,5.811,0,0,0,269.776,203.859Z" transform="translate(-269.776 -61.268)" fill="#fafafa"/>
          <path id="Path_118" data-name="Path 118" d="M283.4,198.753c0,1.62,1.212,2.233,2.709,1.369l28.354-16.393a5.807,5.807,0,0,0,2.709-4.5c0-1.622-1.212-2.235-2.709-1.371l-28.355,16.4A5.807,5.807,0,0,0,283.4,198.753Z" transform="translate(-266.353 -65.981)" fill="#fafafa"/>
        </g>
      </g>
      <g id="Tab-2" data-name="Tab" transform="translate(61.017 35.134)">
        <g id="Group_47" data-name="Group 47">
          <path id="Path_119" data-name="Path 119" d="M381.654,103.386h0l-.018-.01h0l-5.077-2.939h0a2.276,2.276,0,0,0-2.3.22l-64.654,37.42a7.212,7.212,0,0,0-3.251,5.63V276.959a2.281,2.281,0,0,0,.951,2.1h0l.005,0h0l5.064,2.928.039.023.066.039v-.014a2.317,2.317,0,0,0,2.208-.255l17.082-9.862V282.18c0,1.815.286,2.872.758,3.158l0,.006,5.041,2.914.015.009.059.034v-.008c.574.308,1.413-.5,2.345-2.469L352.1,260.179l27.244-15.822a7.212,7.212,0,0,0,3.251-5.63V105.473A2.288,2.288,0,0,0,381.654,103.386Z" transform="translate(-306.357 -100.214)" fill="#043353"/>
          <path id="Path_120" data-name="Path 120" d="M381.324,103.306a2.4,2.4,0,0,0-2.177.288l-64.663,37.424a6.517,6.517,0,0,0-2.252,2.365l-5.08-2.94a6.517,6.517,0,0,1,2.252-2.365l64.663-37.424a2.909,2.909,0,0,1,1.439-.438,1.716,1.716,0,0,1,.851.213Z" transform="translate(-306.157 -100.214)" fill="#fff" opacity="0.4"/>
          <path id="Path_121" data-name="Path 121" d="M327.423,251.462v-.013c-.463-.288-.751-1.339-.751-3.153v-10.26l5.08-2.94v16.141c0,1.727.263,2.778.688,3.128Z" transform="translate(-301.254 -66.33)" opacity="0.2"/>
          <path id="Path_122" data-name="Path 122" d="M312.418,273.928c-.013,0-.025-.013-.038-.013l-5.067-2.928-.013-.013a2.288,2.288,0,0,1-.938-2.09V135.632a6.674,6.674,0,0,1,.988-3.266l5.08,2.94a6.674,6.674,0,0,0-.988,3.266V271.826A2.261,2.261,0,0,0,312.418,273.928Z" transform="translate(-306.356 -92.137)" opacity="0.1"/>
        </g>
        <g id="Group_48" data-name="Group 48" transform="translate(15.247 20.308)">
          <path id="Path_123" data-name="Path 123" d="M321.251,143.117l45.409-26.3c1.494-.866,2.706-.168,2.706,1.56v28.947a6,6,0,0,1-2.706,4.7l-45.409,26.3c-1.5.866-2.708.168-2.708-1.56V147.813A6,6,0,0,1,321.251,143.117Z" transform="translate(-318.543 -116.445)" fill="#fafafa"/>
          <path id="Path_124" data-name="Path 124" d="M369.366,151.025a5.809,5.809,0,0,1-2.709,4.5l-45.4,26.215c-1.5.863-2.709.249-2.709-1.371a5.811,5.811,0,0,1,2.709-4.5l45.4-26.214C368.153,148.79,369.366,149.4,369.366,151.025Z" transform="translate(-318.543 -108.201)" fill="#fafafa"/>
          <path id="Path_125" data-name="Path 125" d="M369.366,160.4a5.807,5.807,0,0,1-2.709,4.5l-45.4,26.215c-1.5.863-2.709.25-2.709-1.371a5.807,5.807,0,0,1,2.709-4.5l45.4-26.214C368.153,158.17,369.366,158.784,369.366,160.4Z" transform="translate(-318.543 -105.844)" fill="#fafafa"/>
          <path id="Path_126" data-name="Path 126" d="M369.366,169.785a5.807,5.807,0,0,1-2.709,4.5l-45.4,26.215c-1.5.863-2.709.25-2.709-1.371a5.807,5.807,0,0,1,2.709-4.5l45.4-26.214C368.153,167.55,369.366,168.164,369.366,169.785Z" transform="translate(-318.543 -103.488)" fill="#fafafa"/>
          <path id="Path_127" data-name="Path 127" d="M369.366,179.165a5.807,5.807,0,0,1-2.709,4.5l-45.4,26.215c-1.5.863-2.709.25-2.709-1.371a5.807,5.807,0,0,1,2.709-4.5l45.4-26.214C368.153,176.93,369.366,177.544,369.366,179.165Z" transform="translate(-318.543 -101.132)" fill="#fafafa"/>
          <path id="Path_128" data-name="Path 128" d="M318.543,213.178c0,1.62,1.212,2.233,2.709,1.37l4.747-2.74a5.809,5.809,0,0,0,2.709-4.5c0-1.622-1.212-2.235-2.708-1.371l-4.748,2.741A5.807,5.807,0,0,0,318.543,213.178Z" transform="translate(-318.543 -94.061)" fill="#fafafa"/>
          <path id="Path_129" data-name="Path 129" d="M332.17,208.071c0,1.62,1.214,2.233,2.71,1.37l28.354-16.393a5.811,5.811,0,0,0,2.709-4.5c0-1.622-1.212-2.236-2.709-1.371l-28.355,16.4A5.807,5.807,0,0,0,332.17,208.071Z" transform="translate(-315.12 -98.775)" fill="#fafafa"/>
          <path id="Path_130" data-name="Path 130" d="M318.543,222.559c0,1.62,1.212,2.233,2.709,1.37L326,221.188a5.807,5.807,0,0,0,2.709-4.5c0-1.62-1.212-2.233-2.708-1.37l-4.748,2.74A5.809,5.809,0,0,0,318.543,222.559Z" transform="translate(-318.543 -91.705)" fill="#fafafa"/>
          <path id="Path_131" data-name="Path 131" d="M332.17,217.452c0,1.62,1.214,2.233,2.71,1.37l28.354-16.395a5.808,5.808,0,0,0,2.709-4.5c0-1.62-1.212-2.235-2.709-1.371l-28.355,16.4A5.807,5.807,0,0,0,332.17,217.452Z" transform="translate(-315.12 -96.418)" fill="#fafafa"/>
          <path id="Path_132" data-name="Path 132" d="M318.543,231.939c0,1.622,1.212,2.235,2.709,1.371L326,230.569a5.807,5.807,0,0,0,2.709-4.5c0-1.62-1.212-2.235-2.708-1.37l-4.748,2.74A5.809,5.809,0,0,0,318.543,231.939Z" transform="translate(-318.543 -89.348)" fill="#fafafa"/>
          <path id="Path_133" data-name="Path 133" d="M332.17,226.833c0,1.62,1.214,2.233,2.71,1.37l28.354-16.395a5.807,5.807,0,0,0,2.709-4.5c0-1.622-1.212-2.235-2.709-1.371l-28.355,16.4A5.807,5.807,0,0,0,332.17,226.833Z" transform="translate(-315.12 -94.062)" fill="#fafafa"/>
        </g>
      </g>
    </g>
    <g id="Icons" transform="translate(483.689 57.518)">
      <g id="Group_55" data-name="Group 55">
        <g id="Group_53" data-name="Group 53">
          <g id="Group_51" data-name="Group 51">
            <g id="Group_50" data-name="Group 50">
              <g id="Group_49" data-name="Group 49">
                <path id="Path_134" data-name="Path 134" d="M426.355,62.462l-6.683-3.855-.008-.005-.061-.035-.006.01c-2.967-1.674-7.038-1.421-11.541,1.177-9.068,5.235-16.42,17.97-16.42,28.441,0,5.226,1.833,8.9,4.795,10.619v0l.014.007v0l6.081,3.471,1.453-2.43a16.635,16.635,0,0,0,4.71-1.832c9.069-5.236,16.421-17.97,16.422-28.441A17.654,17.654,0,0,0,424.6,65.4Z" transform="translate(-391.636 -57.518)" fill="#27debf"/>
              </g>
            </g>
          </g>
          <g id="Group_52" data-name="Group 52" transform="translate(0.003 0.001)">
            <path id="Path_135" data-name="Path 135" d="M391.638,85.5c0,5.23,1.829,8.9,4.79,10.619v.006l.019.006,6.082,3.475,1.453-2.43a16.776,16.776,0,0,0,4.71-1.836c4.852-2.8,9.216-7.758,12.221-13.357L397.1,68.237C393.745,73.64,391.638,79.895,391.638,85.5Z" transform="translate(-391.638 -54.826)" fill="#263238"/>
            <path id="Path_136" data-name="Path 136" d="M425.261,62.461l-6.682-3.856h-.012l-.063-.038-.006.013c-2.967-1.675-7.033-1.428-11.54,1.174A32.807,32.807,0,0,0,396,70.93l23.816,13.747a32.89,32.89,0,0,0,4.2-15.082,17.47,17.47,0,0,0-.519-4.2Z" transform="translate(-390.542 -57.519)" fill="#455a64"/>
          </g>
          <path id="Path_137" data-name="Path 137" d="M413.131,62.666c-9.069,5.235-16.421,17.97-16.421,28.441s7.351,14.716,16.42,9.48,16.422-17.97,16.422-28.441S422.2,57.43,413.131,62.666Z" transform="translate(-390.361 -56.788)" fill="#37474f"/>
        </g>
        <g id="Group_54" data-name="Group 54" transform="translate(17.671 12.135)">
          <path id="Path_138" data-name="Path 138" d="M412.051,69.629a3,3,0,0,1,1.519-.1,2.3,2.3,0,0,1,1.095.578,2.747,2.747,0,0,1,.672,1.04,4.255,4.255,0,0,1,.265,1.249,1.166,1.166,0,0,1-.133.607.946.946,0,0,1-.345.4l-1.236.714c-.2.115-.35.144-.45.084a.807.807,0,0,1-.274-.319,1.4,1.4,0,0,0-.8-.719,2.106,2.106,0,0,0-1.6.42,4.787,4.787,0,0,0-.875.654,4.884,4.884,0,0,0-.724.853,4.3,4.3,0,0,0-.485.975,3.116,3.116,0,0,0-.176,1.026,1.636,1.636,0,0,0,.194.908.8.8,0,0,0,.627.319,4.022,4.022,0,0,0,1.114-.113c.453-.1,1-.228,1.652-.384a6.035,6.035,0,0,1,1.793-.205,2.045,2.045,0,0,1,1.2.449,2.215,2.215,0,0,1,.672,1.149,7.326,7.326,0,0,1,.2,1.869,8.938,8.938,0,0,1-.264,2.138,10.361,10.361,0,0,1-.769,2.1,10.465,10.465,0,0,1-1.227,1.933,9.922,9.922,0,0,1-1.643,1.629v1.849a1.39,1.39,0,0,1-.141.6.9.9,0,0,1-.335.412l-1.431.826a.256.256,0,0,1-.335-.023.581.581,0,0,1-.141-.435V90.266a3.885,3.885,0,0,1-1.494.221,2.418,2.418,0,0,1-1.219-.4,2.465,2.465,0,0,1-.838-1.025,4.3,4.3,0,0,1-.354-1.687,1.149,1.149,0,0,1,.133-.607.949.949,0,0,1,.344-.4l1.237-.713a.535.535,0,0,1,.459-.1.589.589,0,0,1,.265.337,3.027,3.027,0,0,0,.3.534.911.911,0,0,0,.477.35,1.534,1.534,0,0,0,.751.014,3.707,3.707,0,0,0,1.122-.47,7.416,7.416,0,0,0,1.023-.713,5.169,5.169,0,0,0,.867-.908,4.966,4.966,0,0,0,.6-1.054,3.054,3.054,0,0,0,.229-1.18,1.137,1.137,0,0,0-.248-.836.993.993,0,0,0-.751-.22,6.325,6.325,0,0,0-1.245.2q-.743.184-1.714.364a5.132,5.132,0,0,1-1.546.116,1.815,1.815,0,0,1-1.095-.469,2.434,2.434,0,0,1-.644-1.164,7.627,7.627,0,0,1-.211-1.987,8.553,8.553,0,0,1,.265-2.111,11.206,11.206,0,0,1,.732-2.042,10.153,10.153,0,0,1,1.122-1.843,9.928,9.928,0,0,1,1.431-1.52V69.1a1.378,1.378,0,0,1,.141-.6.894.894,0,0,1,.335-.412l1.431-.826a.256.256,0,0,1,.335.024.586.586,0,0,1,.141.435Z" transform="translate(-405.759 -67.217)" fill="#fafafa"/>
        </g>
      </g>
      <g id="Group_67" data-name="Group 67" transform="translate(0 122.436)">
        <g id="Group_60" data-name="Group 60">
          <g id="Group_58" data-name="Group 58">
            <g id="Group_57" data-name="Group 57">
              <g id="Group_56" data-name="Group 56">
                <path id="Path_139" data-name="Path 139" d="M426.355,160.316l-6.683-3.855-.008-.005-.061-.035-.006.01c-2.967-1.674-7.038-1.421-11.541,1.177-9.068,5.235-16.42,17.97-16.42,28.441,0,5.228,1.833,8.9,4.795,10.619v0l.014.007v0l6.081,3.471,1.453-2.43a16.635,16.635,0,0,0,4.71-1.832c9.069-5.236,16.421-17.97,16.422-28.441a17.655,17.655,0,0,0-.514-4.194Z" transform="translate(-391.636 -155.372)" fill="#27debf"/>
              </g>
            </g>
          </g>
          <g id="Group_59" data-name="Group 59" transform="translate(0.003 0.001)">
            <path id="Path_140" data-name="Path 140" d="M391.638,183.355c0,5.229,1.829,8.9,4.79,10.619v.005l.019.006,6.082,3.475,1.453-2.43a16.776,16.776,0,0,0,4.71-1.836c4.852-2.8,9.216-7.758,12.221-13.357L397.1,166.091C393.745,171.494,391.638,177.749,391.638,183.355Z" transform="translate(-391.638 -152.68)" fill="#263238"/>
            <path id="Path_141" data-name="Path 141" d="M425.261,160.315l-6.682-3.856h-.012l-.063-.038-.006.013c-2.967-1.675-7.033-1.428-11.54,1.174A32.807,32.807,0,0,0,396,168.784l23.816,13.747a32.89,32.89,0,0,0,4.2-15.082,17.471,17.471,0,0,0-.519-4.2Z" transform="translate(-390.542 -155.373)" fill="#455a64"/>
          </g>
          <path id="Path_142" data-name="Path 142" d="M413.131,160.52c-9.069,5.236-16.421,17.969-16.421,28.441s7.351,14.716,16.42,9.48,16.422-17.97,16.422-28.441S422.2,155.284,413.131,160.52Z" transform="translate(-390.361 -154.642)" fill="#37474f"/>
        </g>
        <g id="Group_66" data-name="Group 66" transform="translate(14.065 11.416)">
          <g id="Group_65" data-name="Group 65">
            <g id="Group_61" data-name="Group 61" transform="translate(0 1.225)">
              <path id="Path_143" data-name="Path 143" d="M419.935,181.414l-16.706,9.644c-.194.113-.352-.039-.352-.338V175.9a.927.927,0,0,1,.352-.744l16.706-9.646c.194-.111.352.04.352.339V180.67A.929.929,0,0,1,419.935,181.414Z" transform="translate(-402.877 -165.475)" fill="#fafafa"/>
            </g>
            <g id="Group_62" data-name="Group 62" transform="translate(5.064 1.246)">
              <path id="Path_144" data-name="Path 144" d="M413.855,169.41c-.194.111-.352-.04-.352-.338v-2.258l-5.876,3.393v2.257a.929.929,0,0,1-.352.744c-.194.111-.352-.04-.352-.339v-2.8a.926.926,0,0,1,.352-.743l6.579-3.8c.194-.111.352.04.352.338v2.8A.927.927,0,0,1,413.855,169.41Z" transform="translate(-406.924 -165.492)" fill="#fafafa"/>
            </g>
            <g id="Group_63" data-name="Group 63" transform="translate(5.064)">
              <path id="Path_145" data-name="Path 145" d="M413.855,166.861l-6.579,3.8c-.194.111-.352-.04-.352-.339v-1.245a.927.927,0,0,1,.352-.744l6.579-3.8c.194-.111.352.04.352.339v1.245A.927.927,0,0,1,413.855,166.861Z" transform="translate(-406.924 -164.496)" fill="#fafafa"/>
            </g>
            <g id="Group_64" data-name="Group 64" transform="translate(6.061 9.894)">
              <path id="Path_146" data-name="Path 146" d="M412.753,174.121l-4.777,2.759c-.141.081-.255-.029-.255-.246v-.9a.669.669,0,0,1,.255-.539l4.777-2.759c.14-.081.255.029.255.246v.9A.672.672,0,0,1,412.753,174.121Z" transform="translate(-407.721 -172.404)" fill="#37474f"/>
            </g>
          </g>
        </g>
      </g>
      <g id="Group_71" data-name="Group 71" transform="translate(0 61.218)">
        <g id="Group_69" data-name="Group 69">
          <path id="Path_147" data-name="Path 147" d="M426.355,111.389l-6.683-3.855-.008-.005-.061-.035-.006.01c-2.967-1.674-7.038-1.421-11.541,1.177-9.068,5.236-16.42,17.97-16.42,28.441,0,5.228,1.833,8.9,4.795,10.619v0l.014.007h0l6.081,3.472,1.453-2.43a16.673,16.673,0,0,0,4.71-1.832c9.069-5.236,16.421-17.97,16.422-28.441a17.654,17.654,0,0,0-.514-4.194Z" transform="translate(-391.636 -106.445)" fill="#27debf"/>
          <g id="Group_68" data-name="Group 68" transform="translate(0.003 0.001)">
            <path id="Path_148" data-name="Path 148" d="M391.638,134.428c0,5.229,1.829,8.9,4.79,10.619v0l.019.006,6.082,3.475,1.453-2.43a16.777,16.777,0,0,0,4.71-1.836c4.852-2.8,9.216-7.758,12.221-13.357L397.1,117.164C393.745,122.567,391.638,128.822,391.638,134.428Z" transform="translate(-391.638 -103.753)" fill="#263238"/>
            <path id="Path_149" data-name="Path 149" d="M425.261,111.388l-6.682-3.856h-.012l-.063-.038-.006.013c-2.967-1.675-7.033-1.428-11.54,1.174A32.807,32.807,0,0,0,396,119.857L419.816,133.6a32.89,32.89,0,0,0,4.2-15.082,17.471,17.471,0,0,0-.519-4.2Z" transform="translate(-390.542 -106.446)" fill="#455a64"/>
          </g>
          <path id="Path_150" data-name="Path 150" d="M413.131,111.593c-9.069,5.236-16.421,17.97-16.421,28.441s7.351,14.716,16.42,9.48,16.422-17.97,16.422-28.441S422.2,106.357,413.131,111.593Z" transform="translate(-390.361 -105.715)" fill="#37474f"/>
        </g>
        <g id="Group_70" data-name="Group 70" transform="translate(14.233 9.175)">
          <path id="Path_151" data-name="Path 151" d="M405.023,125.712c0-2.382,1.254-5.037,2.8-5.931s2.8.313,2.8,2.7-1.254,5.037-2.8,5.931S405.023,128.093,405.023,125.712Z" transform="translate(-402.506 -112.344)" fill="#fff"/>
          <path id="Path_152" data-name="Path 152" d="M413.308,135.95l-10.3,5.945.549-6.848c.234-2.924,1.777-5.9,3.6-6.957l1.992-1.15c1.827-1.055,3.369.141,3.6,2.8Z" transform="translate(-403.011 -110.568)" fill="#fff"/>
          <path id="Path_153" data-name="Path 153" d="M410.438,120c0-2.382,1.255-5.037,2.8-5.931s2.8.314,2.8,2.7-1.254,5.037-2.8,5.931S410.438,122.385,410.438,120Z" transform="translate(-401.145 -113.778)" fill="#fff"/>
          <path id="Path_154" data-name="Path 154" d="M418.511,130.239l-6.317,3.647-.288-3.278c-.205-2.3-1.244-3.691-2.63-3.795a8.055,8.055,0,0,1,3.089-4.432l1.992-1.149c1.828-1.056,3.371.139,3.6,2.794Z" transform="translate(-401.437 -112.001)" fill="#fff"/>
        </g>
      </g>
    </g>
    <g id="Magnifying_glass" data-name="Magnifying glass" transform="translate(171.951 349.136)">
      <g id="Magnifying_glass-2" data-name="Magnifying glass" transform="translate(0)">
        <g id="Group_73" data-name="Group 73" transform="translate(70.132)">
          <path id="Path_155" data-name="Path 155" d="M303.589,320.912c0-7.761-5.129-15.523-15.385-21.443-20.511-11.843-53.767-11.843-74.279,0-10.256,5.921-15.384,13.682-15.384,21.442h0v14.3c0,7.76,5.127,15.521,15.384,21.442,20.512,11.843,53.768,11.843,74.281,0,10.255-5.921,15.384-13.682,15.384-21.442v-14.3Zm-87.124-17.044c9.16-5.289,21.448-8.2,34.6-8.2s25.441,2.913,34.6,8.2c8.283,4.782,12.844,10.834,12.844,17.044s-4.562,12.261-12.844,17.043c-9.16,5.289-21.448,8.2-34.6,8.2s-25.438-2.913-34.6-8.2c-8.282-4.782-12.844-10.834-12.844-17.043S208.182,308.65,216.465,303.868Z" transform="translate(-198.537 -290.586)" fill="#18a4e0"/>
          <path id="Path_156" data-name="Path 156" d="M213.922,342.354c20.512,11.843,53.768,11.843,74.281,0s20.512-31.043,0-42.885-53.768-11.843-74.281,0S193.41,330.512,213.922,342.354Zm-10.3-21.442c0-6.21,4.561-12.262,12.844-17.044,9.16-5.289,21.448-8.2,34.6-8.2s25.44,2.913,34.6,8.2c8.283,4.782,12.844,10.834,12.844,17.044s-4.562,12.261-12.844,17.043c-9.161,5.289-21.45,8.2-34.6,8.2s-25.441-2.913-34.6-8.2C208.18,333.172,203.618,327.12,203.618,320.912Z" transform="translate(-198.538 -290.586)" fill="#fff" opacity="0.3"/>
          <g id="Group_72" data-name="Group 72" transform="translate(5.076 5.078)">
            <path id="Path_157" data-name="Path 157" d="M202.6,319.891a14.091,14.091,0,0,0,2.052,7.152c2.082-3.607,5.751-6.989,10.8-9.895a60.518,60.518,0,0,1,17.687-6.511,81.89,81.89,0,0,1,16.916-1.7c13.145,0,25.438,2.915,34.591,8.209,5.049,2.905,8.716,6.287,10.809,9.895a14.177,14.177,0,0,0,2.042-7.152c0-6.207-4.562-12.262-12.851-17.047-9.153-5.284-21.446-8.2-34.591-8.2s-25.448,2.915-34.6,8.2C207.157,307.629,202.6,313.683,202.6,319.891Z" transform="translate(-202.595 -294.645)" fill="#18a4e0"/>
            <path id="Path_158" data-name="Path 158" d="M202.6,319.891a14.091,14.091,0,0,0,2.052,7.152c2.082-3.607,5.751-6.989,10.8-9.895,9.154-5.294,21.446-8.209,34.6-8.209s25.438,2.915,34.591,8.209c5.049,2.905,8.716,6.287,10.809,9.895a14.177,14.177,0,0,0,2.042-7.152c0-6.207-4.562-12.262-12.851-17.047-9.153-5.284-21.446-8.2-34.591-8.2s-25.448,2.915-34.6,8.2C207.157,307.629,202.6,313.683,202.6,319.891Z" transform="translate(-202.595 -294.645)" opacity="0.1"/>
          </g>
          <path id="Path_159" data-name="Path 159" d="M215.357,308.021c9.16-5.289,21.448-8.2,34.6-8.2s25.44,2.913,34.6,8.2c6.834,3.945,11.127,8.757,12.421,13.807-1.294,5.05-5.587,9.862-12.421,13.807-9.161,5.289-21.45,8.2-34.6,8.2s-25.441-2.913-34.6-8.2c-6.834-3.945-11.126-8.757-12.421-13.807C204.231,316.778,208.523,311.966,215.357,308.021Z" transform="translate(-197.433 -288.267)" fill="#fff" opacity="0.4"/>
          <path id="Path_160" data-name="Path 160" d="M238.687,345.243v14.284a68.772,68.772,0,0,1-24.758-8.025c-10.26-5.923-15.391-13.684-15.391-21.446V315.762a18.038,18.038,0,0,1,.631-4.683h.01c-2.49,9.234,2.427,19.007,14.751,26.129A68.976,68.976,0,0,0,238.687,345.243Z" transform="translate(-198.538 -285.438)" opacity="0.1"/>
        </g>
        <g id="Group_77" data-name="Group 77" transform="translate(0 53.97)">
          <g id="Group_74" data-name="Group 74" transform="translate(62.049)">
            <path id="Path_161" data-name="Path 161" d="M217.11,340.618a8.135,8.135,0,0,0-3.655-6.389,2.59,2.59,0,0,0-2.59-.273h0l-.01.005h0l-17.681,10.091-.013.006,0,0h0a2.592,2.592,0,0,0-1.08,2.371,8.138,8.138,0,0,0,3.655,6.39,2.587,2.587,0,0,0,2.6.268h0L216.012,343h0A2.577,2.577,0,0,0,217.11,340.618Z" transform="translate(-192.078 -333.721)" fill="#37474f"/>
            <path id="Path_162" data-name="Path 162" d="M215.688,342.168a2.577,2.577,0,0,0,1.1-2.382,6.985,6.985,0,0,0-.624-2.754l-22.8,13.039a6.975,6.975,0,0,0,2.047,1.919,2.587,2.587,0,0,0,2.6.268l17.678-10.089Z" transform="translate(-191.755 -332.889)" fill="#263238"/>
          </g>
          <path id="Path_163" data-name="Path 163" d="M210.79,350.748a10.586,10.586,0,0,0-4.755-8.316,3.387,3.387,0,0,0-3.331-.369l0-.006-.049.026h0L144.014,373.4l8.748,15.461,56.6-35.015A3.36,3.36,0,0,0,210.79,350.748Z" transform="translate(-142.103 -331.697)" fill="#18a4e0"/>
          <path id="Path_164" data-name="Path 164" d="M151.912,388.073l56.6-35.015a3.36,3.36,0,0,0,1.423-3.1,9.956,9.956,0,0,0-1.59-5.047L147.4,380.1Z" transform="translate(-141.253 -330.909)" opacity="0.1"/>
          <g id="Group_75" data-name="Group 75" transform="translate(0 41.32)">
            <path id="Path_165" data-name="Path 165" d="M148.723,382.124a13.879,13.879,0,0,1-6.236-10.906c.016-4.008,2.835-5.622,6.3-3.6a13.884,13.884,0,0,1,6.237,10.906C155,382.524,152.185,384.138,148.723,382.124Z" transform="translate(-142.487 -366.745)" fill="#27debf"/>
          </g>
          <g id="Group_76" data-name="Group 76" transform="translate(0 41.32)" opacity="0.2">
            <path id="Path_166" data-name="Path 166" d="M148.723,382.124a13.879,13.879,0,0,1-6.236-10.906c.016-4.008,2.835-5.622,6.3-3.6a13.884,13.884,0,0,1,6.237,10.906C155,382.524,152.185,384.138,148.723,382.124Z" transform="translate(-142.487 -366.745)"/>
          </g>
        </g>
      </g>
    </g>
    <g id="Character" transform="translate(441.976 252.698)">
      <g id="Character-2" data-name="Character">
        <g id="Group_78" data-name="Group 78" transform="translate(66.144 35.022)">
          <path id="Path_167" data-name="Path 167" d="M426.89,275.36c.641-23.8-1.267-29.5-7.6-33.859l-2.455,13.788s2.887,16.251,2.576,21.662c-.271,4.755-.734,10.7-1.859,14.545a2.891,2.891,0,0,1-1.26,1.63,16.626,16.626,0,0,0-3.478,3.318c-.952,1-1.762,1.244-1.637,1.56a1.564,1.564,0,0,0,2.006.711,10.965,10.965,0,0,0,2.289-1.241,14.535,14.535,0,0,1-2.344,4.029c-2.262,2.773-2.362,4.477,2.206,4.517,2.862.025,5.146-1.74,7.3-8.047a51.421,51.421,0,0,0,2.012-7.082C425.736,284.652,426.787,279.191,426.89,275.36Z" transform="translate(-411.162 -241.501)" fill="#ffa8a7"/>
        </g>
        <path id="Path_168" data-name="Path 168" d="M413.4,240.079a9.135,9.135,0,0,1,9.791,4.945c2.655,4.75,3.306,12.919,3.608,21.042,0,0-5.275,4.411-11.6,2.242Z" transform="translate(-344.457 -206.865)" fill="#18a4e0"/>
        <g id="Group_98" data-name="Group 98" transform="translate(34.906)">
          <g id="Group_85" data-name="Group 85" transform="translate(0 73.965)">
            <g id="Group_79" data-name="Group 79" transform="translate(29.128 81.601)">
              <path id="Path_169" data-name="Path 169" d="M423.277,346.378c.48.183.6,1.1.674,2.915.055,1.376.35,3.779-1.261,4.258s-3.974.235-5.007-1.062c-1.289-1.619-2.161-3.044-4-5.02-1.6-1.713-3.323-3.313-3.968-5.716-.582-2.172-.1-3.114,1.384-3.746,2.038-.868,5.239,1.969,6.835,2.416C419.309,340.807,422.8,346.2,423.277,346.378Z" transform="translate(-409.476 -337.843)" fill="#263238"/>
            </g>
            <g id="Group_80" data-name="Group 80" transform="translate(36.701 87.643)">
              <path id="Path_170" data-name="Path 170" d="M421.757,343.48v2.233a5.466,5.466,0,0,1-5.643.153c-.1-.215-.586-3.194-.586-3.194Z" transform="translate(-415.528 -342.672)" fill="#ffa8a7"/>
            </g>
            <g id="Group_81" data-name="Group 81" transform="translate(0 103.004)">
              <path id="Path_171" data-name="Path 171" d="M411.043,354.949s.641,1.942.986,3.64c.274,1.35.667,3.607.194,4.622s-2.316,1.67-5.175,1.649c-1.852-.014-4.737,1.244-6.713,2.346-2.041,1.139-6.285,1.592-8.443,1.339-2.544-.3-5.179-1.774-5.59-2.828s.135-2.147,6.13-4.7c.055-.024,8.333-2.715,11.233-5.916Z" transform="translate(-386.196 -354.949)" fill="#263238"/>
            </g>
            <g id="Group_82" data-name="Group 82" transform="translate(17.465 100.591)">
              <path id="Path_172" data-name="Path 172" d="M407.536,353.02s-.009,1.657,0,2.6-1.111,2.359-4.005,2.255c-2.034-.073-3.453-.619-3.373-2.293V353.17Z" transform="translate(-400.154 -353.02)" fill="#ffa8a7"/>
            </g>
            <g id="Group_83" data-name="Group 83" transform="translate(9.236)">
              <path id="Path_173" data-name="Path 173" d="M428.723,331.444a60.657,60.657,0,0,0-2.638-11.63s.8-10.033,1.18-19.546c.413-10.275-.021-23.192.174-25.755,0,0-33.157-6.709-33.749,5.169s1.309,42.116,1.7,47.335,1.294,9.833,2.372,18.291c1.064,8.347,4.046,28.058,4.046,28.058a7.832,7.832,0,0,0,7.378-.15s2.332-23.752,2.088-29.773a51.439,51.439,0,0,0-2.283-13.143s.628-9.794,1.184-18.314,1.144-12.611,1.272-16.317l.713-.354s.727,14.7,1.119,19.917,1.222,10.221,2.733,19.914c1.309,8.408,5.21,26.2,5.21,26.2,3.787,2.048,6.047-.269,6.047-.269S429.746,338.74,428.723,331.444Z" transform="translate(-393.577 -272.625)" fill="#37474f"/>
            </g>
            <g id="Group_84" data-name="Group 84" transform="translate(27.108 15.506)">
              <path id="Path_174" data-name="Path 174" d="M407.861,292.557s8.043-3.964,12.069-7.539c0,0-3.739,5.266-8.645,7.6,0,0-1.745,18.258-1.737,17.895l-1.007-17.986Z" transform="translate(-407.861 -285.018)" fill="#263238"/>
            </g>
          </g>
          <g id="Group_87" data-name="Group 87" transform="translate(19.948 27.297)">
            <g id="Group_86" data-name="Group 86">
              <path id="Path_175" data-name="Path 175" d="M402.139,237.482l1.962,10.8,9.755-.712-2.048-12.242Z" transform="translate(-402.139 -235.327)" fill="#ffa8a7"/>
            </g>
          </g>
          <g id="Group_89" data-name="Group 89" transform="translate(9.257 33.215)">
            <g id="Group_88" data-name="Group 88">
              <path id="Path_176" data-name="Path 176" d="M426.3,245.591c-.965-2.937-4.69-6.132-8.418-5.439a109.89,109.89,0,0,0-16.325,4.076c-3.412,1.219-6.521,4.168-6.8,15.394,0,0-1.142,26.17-1.162,31.232A41.38,41.38,0,0,0,416,293.064c10.255-2.241,11.492-6.5,11.492-6.5s.133-18.818-.175-26.946C427.058,252.717,426.966,247.608,426.3,245.591Z" transform="translate(-393.594 -240.056)" fill="#f5f5f5"/>
            </g>
          </g>
          <g id="Group_92" data-name="Group 92" transform="translate(10.224 4.79)">
            <g id="Group_90" data-name="Group 90" transform="translate(0 11.527)">
              <path id="Path_177" data-name="Path 177" d="M396.565,226.551s-2.474,3.944-2.173,4.319,2.192.677,2.192.677Z" transform="translate(-394.367 -226.551)" fill="#ffa8a7"/>
            </g>
            <g id="Group_91" data-name="Group 91" transform="translate(2.099)">
              <path id="Path_178" data-name="Path 178" d="M403.013,217.955c-5.159,1.21-6.6,3.522-6.907,11.766-.315,8.615.623,11.3,1.779,12.432.781.764,5.024.81,7.149.173,2.66-.8,8.661-3.079,11.4-7.47,3.217-5.166,3.938-12.087.305-14.837C411.628,216.149,405.113,217.463,403.013,217.955Z" transform="translate(-396.045 -217.339)" fill="#ffa8a7"/>
            </g>
          </g>
          <g id="Group_97" data-name="Group 97" transform="translate(11.42)">
            <g id="Group_94" data-name="Group 94">
              <g id="Group_93" data-name="Group 93">
                <path id="Path_179" data-name="Path 179" d="M396.344,221.061a10.518,10.518,0,0,0,4.8,3.831c.99,1.126.444,5.522,2.186,6.219,0,0,.747-3.2,3.436-2.859,2.708.342,3.149,3.772,1.5,5.9s-3.256,1.363-3.256,1.363.185,4.543,2.256,7.072c0,0,2.31.689,6.5-.3,2.579-.611,6.17-3.931,7.632-7.395,3.094-7.327,3.176-13.861-1.5-15.713-.576-3.331-3.242-4.77-6.257-5.391-6.493-1.339-10.677,2.713-15.674,2.361C395.105,215.942,394.571,218.024,396.344,221.061Z" transform="translate(-395.323 -213.51)" fill="#263238"/>
              </g>
            </g>
            <g id="Group_96" data-name="Group 96" transform="translate(24.409 4.032)">
              <g id="Group_95" data-name="Group 95">
                <path id="Path_180" data-name="Path 180" d="M415.1,219.482l3.06-1.9a1.8,1.8,0,0,0-3.06,1.9Z" transform="translate(-414.832 -216.733)" fill="#263238"/>
              </g>
            </g>
          </g>
        </g>
        <path id="Path_181" data-name="Path 181" d="M369.181,262.839c1.6.713,20.5,14.68,23.449,13.054S410.7,256.6,410.7,256.6a12.2,12.2,0,0,0,0-13.249s-4.848.9-7.382,4.73-13.492,17.576-13.492,17.576q-4.06-2.033-8.09-4.119c-2.215-1.146-4.433-2.292-6.6-3.525a8.137,8.137,0,0,1-1.7-1.051c-1.07-1.057-.886-3.614-.866-5a19.112,19.112,0,0,1,.094-1.948c.093-.793.244-2.739-1.186-2.122a1.8,1.8,0,0,0-.682.574,3.218,3.218,0,0,0-.512.975c-.27.841-.184,1.762-.432,2.609a.735.735,0,0,1-.175.339.628.628,0,0,1-.452.138c-2.083-.063-4.054-2.982-5.01-4.531a4.247,4.247,0,0,0-1.58-1.8c-1.14-.532-2.509.23-3.243,1.252a6.592,6.592,0,0,0-1.031,4.588,9.113,9.113,0,0,0,2.715,5.754A27.9,27.9,0,0,0,369.181,262.839Z" transform="translate(-358.298 -206.013)" fill="#ffa8a7"/>
        <path id="Path_182" data-name="Path 182" d="M405.2,242.9c-2.086.24-5.006-.146-9.09,4.239a127.672,127.672,0,0,0-9.191,11.828,11.581,11.581,0,0,0,9.14,8.6s7.152-7.327,9.141-11.361S407.65,245.622,405.2,242.9Z" transform="translate(-351.109 -206.128)" fill="#18a4e0"/>
      </g>
    </g>
  </g>
</svg>
